G04 (created by PCBNEW (22-Jun-2014 BZR 4027)-stable) date Sat 16 Dec 2017 11:33:48 AM CST*
%MOIN*%
G04 Gerber Fmt 3.4, Leading zero omitted, Abs format*
%FSLAX34Y34*%
G01*
G70*
G90*
G04 APERTURE LIST*
%ADD10C,0.00590551*%
%ADD11C,0.125984*%
%ADD12C,0.05*%
%ADD13C,0.059*%
%ADD14O,0.059X0.059*%
%ADD15R,0.059X0.059*%
%ADD16R,0.069X0.069*%
%ADD17O,0.069X0.069*%
%ADD18O,0.059X0.0885*%
%ADD19R,0.059X0.0885*%
%ADD20C,0.069*%
%ADD21C,0.1*%
%ADD22C,0.05*%
%ADD23C,0.025*%
%ADD24C,0.04*%
%ADD25C,0.02*%
%ADD26C,0.015*%
%ADD27C,0.03*%
G04 APERTURE END LIST*
G54D10*
G54D11*
X63750Y-31500D03*
X63500Y-48750D03*
X92750Y-31500D03*
G54D12*
X76792Y-36542D03*
X78207Y-36542D03*
X78489Y-37250D03*
X77500Y-36260D03*
X78207Y-37957D03*
X77500Y-38239D03*
X76792Y-37957D03*
X76510Y-37250D03*
G54D13*
X71750Y-42250D03*
X73750Y-42250D03*
X72250Y-42250D03*
X66250Y-34750D03*
X66250Y-36750D03*
X66250Y-35250D03*
X68750Y-35250D03*
X68750Y-37250D03*
X68750Y-35750D03*
X82250Y-37000D03*
X82250Y-39000D03*
X82250Y-37500D03*
X72750Y-35750D03*
X72750Y-37750D03*
X72750Y-36250D03*
G54D14*
X90250Y-33500D03*
X90250Y-34500D03*
X64500Y-39500D03*
X64500Y-35500D03*
X63000Y-46500D03*
X63000Y-42500D03*
X92500Y-40750D03*
X92500Y-44750D03*
X71750Y-43750D03*
X71750Y-47750D03*
X81000Y-46500D03*
X77000Y-46500D03*
X77000Y-47500D03*
X81000Y-47500D03*
X86250Y-39250D03*
X86250Y-43250D03*
G54D15*
X86000Y-34750D03*
G54D14*
X86000Y-35750D03*
X86000Y-36750D03*
X86000Y-37750D03*
X89000Y-37750D03*
X89000Y-36750D03*
X89000Y-34750D03*
X89000Y-35750D03*
G54D15*
X68500Y-43750D03*
G54D14*
X67500Y-43750D03*
X66500Y-43750D03*
X65500Y-43750D03*
X65500Y-46750D03*
X66500Y-46750D03*
X68500Y-46750D03*
X67500Y-46750D03*
G54D16*
X84500Y-32250D03*
G54D17*
X80500Y-32250D03*
G54D16*
X63000Y-41750D03*
G54D17*
X67000Y-41750D03*
G54D13*
X65000Y-40500D03*
X67000Y-40500D03*
X73500Y-44250D03*
X75500Y-44250D03*
X64250Y-43000D03*
X64250Y-45000D03*
X81500Y-31250D03*
X83500Y-31250D03*
X70750Y-35750D03*
X70750Y-37750D03*
X86500Y-33250D03*
X88500Y-33250D03*
X88500Y-32250D03*
X86500Y-32250D03*
X87000Y-39250D03*
X89000Y-39250D03*
X80250Y-41500D03*
X78250Y-41500D03*
X75500Y-47750D03*
X75500Y-45750D03*
X70000Y-46250D03*
X70000Y-44250D03*
G54D18*
X91500Y-39397D03*
X92500Y-39397D03*
G54D19*
X90500Y-39397D03*
G54D17*
X84750Y-48000D03*
X93250Y-34500D03*
X91500Y-36750D03*
X79000Y-48750D03*
X77500Y-31750D03*
X77500Y-42750D03*
X84500Y-41750D03*
X64000Y-34250D03*
X93250Y-33500D03*
G54D18*
X83250Y-47852D03*
X82750Y-48647D03*
X82250Y-47852D03*
G54D14*
X75000Y-33250D03*
X80000Y-33250D03*
G54D20*
X80250Y-42750D03*
X84500Y-42750D03*
X77500Y-44750D03*
X84000Y-44750D03*
G54D17*
X85000Y-44750D03*
G54D13*
X86250Y-44750D03*
X86250Y-46750D03*
X86250Y-45250D03*
X88250Y-43500D03*
X88250Y-45500D03*
X88250Y-44000D03*
X90750Y-43500D03*
X90750Y-45500D03*
X90750Y-44000D03*
G54D20*
X66250Y-32000D03*
X66250Y-39500D03*
X68750Y-32500D03*
X68750Y-40000D03*
X90750Y-40750D03*
X90750Y-48250D03*
X88250Y-40750D03*
X88250Y-48250D03*
X82250Y-34250D03*
X82250Y-41750D03*
X72750Y-33000D03*
X72750Y-40500D03*
X69000Y-42250D03*
X76500Y-42250D03*
G54D21*
X77500Y-31750D02*
X77500Y-35750D01*
G54D22*
X77500Y-35750D02*
X77500Y-36260D01*
G54D23*
X68750Y-35250D02*
X68750Y-35750D01*
X66250Y-34750D02*
X66250Y-35250D01*
G54D24*
X81500Y-31250D02*
X82250Y-32000D01*
X82250Y-34250D02*
X82250Y-37000D01*
X82250Y-32000D02*
X82250Y-34250D01*
G54D25*
X77500Y-31750D02*
X78250Y-30500D01*
X85250Y-36000D02*
X86000Y-36750D01*
X85250Y-30900D02*
X85250Y-36000D01*
X84850Y-30500D02*
X85250Y-30900D01*
X78250Y-30500D02*
X84850Y-30500D01*
G54D24*
X77500Y-31750D02*
X77500Y-30500D01*
X63000Y-33000D02*
X63800Y-33000D01*
X63000Y-33800D02*
X63000Y-33000D01*
X63800Y-33000D02*
X65250Y-33000D01*
X65250Y-33000D02*
X65250Y-31000D01*
X65250Y-31000D02*
X66000Y-30500D01*
X66000Y-30500D02*
X77500Y-30500D01*
X63000Y-33800D02*
X63000Y-41750D01*
X77500Y-31750D02*
X77000Y-31250D01*
G54D22*
X66250Y-32000D02*
X66250Y-34750D01*
X67000Y-31250D02*
X66250Y-32000D01*
G54D24*
X77000Y-31250D02*
X67000Y-31250D01*
G54D22*
X77500Y-31750D02*
X76500Y-32000D01*
X68750Y-32500D02*
X68750Y-35250D01*
X69250Y-32000D02*
X68750Y-32500D01*
X76500Y-32000D02*
X69250Y-32000D01*
G54D24*
X81500Y-31250D02*
X78500Y-31250D01*
X78500Y-31250D02*
X77500Y-31750D01*
X63000Y-42500D02*
X63000Y-41750D01*
G54D23*
X86250Y-44750D02*
X86250Y-45250D01*
G54D24*
X86250Y-44750D02*
X86250Y-43250D01*
X85000Y-44750D02*
X86250Y-44750D01*
G54D22*
X88250Y-45500D02*
X87000Y-45500D01*
X87000Y-45500D02*
X86250Y-44750D01*
X87750Y-48000D02*
X84750Y-48000D01*
X88000Y-48000D02*
X88250Y-48250D01*
X87750Y-48000D02*
X88000Y-48000D01*
X88250Y-48250D02*
X88250Y-45500D01*
G54D24*
X83500Y-35250D02*
X83500Y-36750D01*
X83500Y-31250D02*
X83500Y-35250D01*
X83500Y-36750D02*
X84500Y-37750D01*
G54D22*
X84500Y-37750D02*
X84500Y-33750D01*
X84500Y-33750D02*
X84500Y-32250D01*
G54D23*
X88500Y-33250D02*
X88000Y-33750D01*
X87500Y-40250D02*
X84500Y-40250D01*
X88000Y-39750D02*
X87500Y-40250D01*
X88000Y-33750D02*
X88000Y-39750D01*
G54D24*
X78250Y-41500D02*
X77500Y-41500D01*
X79000Y-42750D02*
X79000Y-43250D01*
X76500Y-44250D02*
X76750Y-44500D01*
X76750Y-44500D02*
X76750Y-45000D01*
X76750Y-45000D02*
X77250Y-45500D01*
X77250Y-45500D02*
X77750Y-45500D01*
X77750Y-45500D02*
X78250Y-45000D01*
X78250Y-45000D02*
X78250Y-44000D01*
X78250Y-44000D02*
X79000Y-43250D01*
X76500Y-44250D02*
X75500Y-44250D01*
G54D22*
X84000Y-44750D02*
X84000Y-45500D01*
X84000Y-45500D02*
X86250Y-46750D01*
X77500Y-42750D02*
X77500Y-44750D01*
X77500Y-42750D02*
X79000Y-42750D01*
X79000Y-42750D02*
X80250Y-42750D01*
G54D21*
X77500Y-42750D02*
X77500Y-41500D01*
X77500Y-41500D02*
X77500Y-38750D01*
G54D22*
X77500Y-38750D02*
X77500Y-38239D01*
G54D23*
X70750Y-37750D02*
X72750Y-37750D01*
G54D22*
X72750Y-37750D02*
X72750Y-40500D01*
X76500Y-40500D02*
X72750Y-40500D01*
X76500Y-40500D02*
X76500Y-42250D01*
X77500Y-42750D02*
X76500Y-42750D01*
X76500Y-42250D02*
X73750Y-42250D01*
X76500Y-42750D02*
X76500Y-42250D01*
X84500Y-37750D02*
X86000Y-37750D01*
X84500Y-41750D02*
X84500Y-40250D01*
X84500Y-40250D02*
X84500Y-37750D01*
X84500Y-42750D02*
X84500Y-41750D01*
G54D24*
X70000Y-44250D02*
X71250Y-45250D01*
X71250Y-45250D02*
X74500Y-45250D01*
X74500Y-45250D02*
X75500Y-44250D01*
X65500Y-44750D02*
X69500Y-44750D01*
X69500Y-44750D02*
X70000Y-44250D01*
X64250Y-45000D02*
X64500Y-44750D01*
X65500Y-44750D02*
X65500Y-43750D01*
X64500Y-44750D02*
X65500Y-44750D01*
G54D23*
X86500Y-32250D02*
X87750Y-33250D01*
X87750Y-33250D02*
X88500Y-33250D01*
X89000Y-39250D02*
X90000Y-38250D01*
X90000Y-38250D02*
X90000Y-36750D01*
G54D22*
X89000Y-36750D02*
X90000Y-36750D01*
X90000Y-36750D02*
X91500Y-36750D01*
X91500Y-36750D02*
X92500Y-39250D01*
X82750Y-48500D02*
X83250Y-49250D01*
X83250Y-49250D02*
X92500Y-49250D01*
X93500Y-49250D02*
X93500Y-48250D01*
X92500Y-49250D02*
X93500Y-49250D01*
X93500Y-48250D02*
X93500Y-36750D01*
X93500Y-35750D02*
X92500Y-35750D01*
X93500Y-36750D02*
X93500Y-35750D01*
X92500Y-35750D02*
X89000Y-35750D01*
X82750Y-48500D02*
X82250Y-49250D01*
X79750Y-49250D02*
X82250Y-49250D01*
X79750Y-49250D02*
X79000Y-48750D01*
G54D24*
X68500Y-46250D02*
X70000Y-46250D01*
X64500Y-46500D02*
X65250Y-45750D01*
X68500Y-46250D02*
X68500Y-46750D01*
X68000Y-45750D02*
X68500Y-46250D01*
X65250Y-45750D02*
X68000Y-45750D01*
G54D22*
X64500Y-47750D02*
X66000Y-49250D01*
X63000Y-46500D02*
X64500Y-46500D01*
X64500Y-47750D02*
X64500Y-46500D01*
X66000Y-49250D02*
X78500Y-49250D01*
X78500Y-49250D02*
X79000Y-48750D01*
G54D24*
X83250Y-38750D02*
X82750Y-38250D01*
X83250Y-38750D02*
X83250Y-43500D01*
X83250Y-43500D02*
X82750Y-44000D01*
X82750Y-46500D02*
X82750Y-44000D01*
X80750Y-38250D02*
X80000Y-37250D01*
X82750Y-38250D02*
X80750Y-38250D01*
G54D22*
X78489Y-37250D02*
X80000Y-37250D01*
G54D24*
X80000Y-37250D02*
X80000Y-33250D01*
X83250Y-48000D02*
X83250Y-46500D01*
X83250Y-46500D02*
X82750Y-46500D01*
X82750Y-46500D02*
X81000Y-46500D01*
G54D23*
X71750Y-47750D02*
X75500Y-47750D01*
G54D26*
X66500Y-47500D02*
X67000Y-48000D01*
G54D23*
X66500Y-46750D02*
X66500Y-47500D01*
G54D26*
X71500Y-48000D02*
X71750Y-47750D01*
X67000Y-48000D02*
X71500Y-48000D01*
G54D23*
X90750Y-44000D02*
X90750Y-43500D01*
G54D22*
X90500Y-39250D02*
X90500Y-40500D01*
X90750Y-43500D02*
X92500Y-44750D01*
X90750Y-40750D02*
X90750Y-43500D01*
X90500Y-40500D02*
X90750Y-40750D01*
G54D23*
X88250Y-44000D02*
X88250Y-43500D01*
G54D22*
X90750Y-48250D02*
X90750Y-45500D01*
X88250Y-43500D02*
X88250Y-40750D01*
X89250Y-44500D02*
X88250Y-43500D01*
X89750Y-44500D02*
X89250Y-44500D01*
X90750Y-45500D02*
X89750Y-44500D01*
G54D23*
X67000Y-41750D02*
X67000Y-40500D01*
X68500Y-43750D02*
X68500Y-43250D01*
X68500Y-43250D02*
X67000Y-41750D01*
G54D24*
X81000Y-47500D02*
X81750Y-47500D01*
X81750Y-47500D02*
X82250Y-48000D01*
G54D23*
X71000Y-46750D02*
X75750Y-46750D01*
G54D26*
X68000Y-47500D02*
X70250Y-47500D01*
X70250Y-47500D02*
X71000Y-46750D01*
X67500Y-47000D02*
X68000Y-47500D01*
G54D23*
X76750Y-47500D02*
X77000Y-47500D01*
X75750Y-46750D02*
X76750Y-47500D01*
G54D26*
X67500Y-46750D02*
X67500Y-47000D01*
G54D23*
X67500Y-47000D02*
X67500Y-46750D01*
X86500Y-33250D02*
X86500Y-34250D01*
X86500Y-34250D02*
X86000Y-34750D01*
G54D27*
X76510Y-37250D02*
X75250Y-37250D01*
G54D23*
X66250Y-38250D02*
X64250Y-38250D01*
X64000Y-42500D02*
X64250Y-43000D01*
X64000Y-40500D02*
X64000Y-42500D01*
X63750Y-40250D02*
X64000Y-40500D01*
X63750Y-38750D02*
X63750Y-40250D01*
X64250Y-38250D02*
X63750Y-38750D01*
G54D22*
X66250Y-36750D02*
X66250Y-38250D01*
X66250Y-38250D02*
X66250Y-39500D01*
G54D23*
X66250Y-36750D02*
X68000Y-36750D01*
G54D26*
X68000Y-36750D02*
X74750Y-36750D01*
G54D23*
X74750Y-36750D02*
X75250Y-37250D01*
X64250Y-43000D02*
X65750Y-43000D01*
X65750Y-43000D02*
X66500Y-43750D01*
X65000Y-40500D02*
X65000Y-40250D01*
X64500Y-39750D02*
X64500Y-39500D01*
X65000Y-40250D02*
X64500Y-39750D01*
X67500Y-43750D02*
X67500Y-43500D01*
X65000Y-41000D02*
X65000Y-40500D01*
X67500Y-43500D02*
X65000Y-41000D01*
X71750Y-42250D02*
X72250Y-42250D01*
G54D27*
X76792Y-37957D02*
X76500Y-38000D01*
X76500Y-38000D02*
X75000Y-38000D01*
G54D23*
X71750Y-43750D02*
X71750Y-42250D01*
G54D22*
X68750Y-42000D02*
X68750Y-40000D01*
X68750Y-42000D02*
X69000Y-42250D01*
X71750Y-42250D02*
X69000Y-42250D01*
X68750Y-37250D02*
X68750Y-40000D01*
G54D26*
X74250Y-37250D02*
X69750Y-37250D01*
G54D23*
X68750Y-37250D02*
X69750Y-37250D01*
X75000Y-38000D02*
X74250Y-37250D01*
X71750Y-43750D02*
X73000Y-43750D01*
X73000Y-43750D02*
X73500Y-44250D01*
G54D22*
X90250Y-34500D02*
X93250Y-34500D01*
X90250Y-33500D02*
X93250Y-33500D01*
G54D23*
X88500Y-32250D02*
X88750Y-32250D01*
X89250Y-34500D02*
X89000Y-34750D01*
X89250Y-32750D02*
X89250Y-34500D01*
X88750Y-32250D02*
X89250Y-32750D01*
G54D22*
X92500Y-40750D02*
X91500Y-39750D01*
X91500Y-39750D02*
X91500Y-39250D01*
G54D24*
X91500Y-39750D02*
X91500Y-39250D01*
G54D23*
X87000Y-39250D02*
X86250Y-39250D01*
G54D25*
X86500Y-35750D02*
X87000Y-36250D01*
X86000Y-35750D02*
X86500Y-35750D01*
X87000Y-36250D02*
X87000Y-39250D01*
G54D22*
X80500Y-32250D02*
X79250Y-32250D01*
X78750Y-36000D02*
X78207Y-36542D01*
X78750Y-32500D02*
X78750Y-36000D01*
X79000Y-32250D02*
X78750Y-32500D01*
X79250Y-32250D02*
X79000Y-32250D01*
G54D23*
X77750Y-48250D02*
X77500Y-48500D01*
X66500Y-48500D02*
X65500Y-47500D01*
X65500Y-46750D02*
X65500Y-47500D01*
G54D26*
X77500Y-48500D02*
X66500Y-48500D01*
G54D24*
X81500Y-44500D02*
X77750Y-48250D01*
X81500Y-44500D02*
X81500Y-41750D01*
X82250Y-41750D02*
X81500Y-41750D01*
X81500Y-41750D02*
X80500Y-41750D01*
G54D22*
X82250Y-39750D02*
X82250Y-41750D01*
G54D24*
X80500Y-41750D02*
X80250Y-41500D01*
G54D22*
X78207Y-37957D02*
X80000Y-39750D01*
X82250Y-39750D02*
X82250Y-39000D01*
X80000Y-39750D02*
X82250Y-39750D01*
G54D23*
X75500Y-45750D02*
X76000Y-45750D01*
X76000Y-45750D02*
X77000Y-46500D01*
G54D26*
X68000Y-36000D02*
X68250Y-36250D01*
X69250Y-36250D02*
X69750Y-35750D01*
X68250Y-36250D02*
X69250Y-36250D01*
G54D23*
X72750Y-35750D02*
X72750Y-36250D01*
G54D24*
X75000Y-35250D02*
X75000Y-33250D01*
G54D22*
X72750Y-35250D02*
X72750Y-33000D01*
X72750Y-35750D02*
X72750Y-35250D01*
G54D23*
X70750Y-35750D02*
X72750Y-35750D01*
G54D22*
X75500Y-35250D02*
X76792Y-36542D01*
X72750Y-35250D02*
X75000Y-35250D01*
X75000Y-35250D02*
X75500Y-35250D01*
G54D26*
X68000Y-36000D02*
X68000Y-36000D01*
G54D23*
X64750Y-35750D02*
X65000Y-36000D01*
X65000Y-36000D02*
X68000Y-36000D01*
X64500Y-35500D02*
X64750Y-35750D01*
X69750Y-35750D02*
X70750Y-35750D01*
X64000Y-34250D02*
X64000Y-35000D01*
X64000Y-35000D02*
X64500Y-35500D01*
M02*
