G04 (created by PCBNEW (22-Jun-2014 BZR 4027)-stable) date Sat 16 Dec 2017 05:21:26 AM CST*
%MOIN*%
G04 Gerber Fmt 3.4, Leading zero omitted, Abs format*
%FSLAX34Y34*%
G01*
G70*
G90*
G04 APERTURE LIST*
%ADD10C,0.00590551*%
%ADD11C,0.006*%
G04 APERTURE END LIST*
G54D10*
G54D11*
X75800Y-30671D02*
X75800Y-30914D01*
X75814Y-30942D01*
X75828Y-30957D01*
X75857Y-30971D01*
X75900Y-30971D01*
X75928Y-30957D01*
X75800Y-30857D02*
X75828Y-30871D01*
X75885Y-30871D01*
X75914Y-30857D01*
X75928Y-30842D01*
X75942Y-30814D01*
X75942Y-30728D01*
X75928Y-30700D01*
X75914Y-30685D01*
X75885Y-30671D01*
X75828Y-30671D01*
X75800Y-30685D01*
X75657Y-30871D02*
X75657Y-30671D01*
X75657Y-30571D02*
X75671Y-30585D01*
X75657Y-30600D01*
X75642Y-30585D01*
X75657Y-30571D01*
X75657Y-30600D01*
X75557Y-30671D02*
X75442Y-30671D01*
X75514Y-30571D02*
X75514Y-30828D01*
X75500Y-30857D01*
X75471Y-30871D01*
X75442Y-30871D01*
X75342Y-30871D02*
X75342Y-30571D01*
X75214Y-30871D02*
X75214Y-30714D01*
X75228Y-30685D01*
X75257Y-30671D01*
X75299Y-30671D01*
X75328Y-30685D01*
X75342Y-30700D01*
X74942Y-30671D02*
X74942Y-30871D01*
X75071Y-30671D02*
X75071Y-30828D01*
X75057Y-30857D01*
X75028Y-30871D01*
X74985Y-30871D01*
X74957Y-30857D01*
X74942Y-30842D01*
X74799Y-30871D02*
X74799Y-30571D01*
X74799Y-30685D02*
X74771Y-30671D01*
X74714Y-30671D01*
X74685Y-30685D01*
X74671Y-30700D01*
X74657Y-30728D01*
X74657Y-30814D01*
X74671Y-30842D01*
X74685Y-30857D01*
X74714Y-30871D01*
X74771Y-30871D01*
X74799Y-30857D01*
X74528Y-30842D02*
X74514Y-30857D01*
X74528Y-30871D01*
X74542Y-30857D01*
X74528Y-30842D01*
X74528Y-30871D01*
X74257Y-30857D02*
X74285Y-30871D01*
X74342Y-30871D01*
X74371Y-30857D01*
X74385Y-30842D01*
X74399Y-30814D01*
X74399Y-30728D01*
X74385Y-30700D01*
X74371Y-30685D01*
X74342Y-30671D01*
X74285Y-30671D01*
X74257Y-30685D01*
X74085Y-30871D02*
X74114Y-30857D01*
X74128Y-30842D01*
X74142Y-30814D01*
X74142Y-30728D01*
X74128Y-30700D01*
X74114Y-30685D01*
X74085Y-30671D01*
X74042Y-30671D01*
X74014Y-30685D01*
X73999Y-30700D01*
X73985Y-30728D01*
X73985Y-30814D01*
X73999Y-30842D01*
X74014Y-30857D01*
X74042Y-30871D01*
X74085Y-30871D01*
X73857Y-30871D02*
X73857Y-30671D01*
X73857Y-30700D02*
X73842Y-30685D01*
X73814Y-30671D01*
X73771Y-30671D01*
X73742Y-30685D01*
X73728Y-30714D01*
X73728Y-30871D01*
X73728Y-30714D02*
X73714Y-30685D01*
X73685Y-30671D01*
X73642Y-30671D01*
X73614Y-30685D01*
X73599Y-30714D01*
X73599Y-30871D01*
X73242Y-30557D02*
X73499Y-30942D01*
X73142Y-30671D02*
X73142Y-30971D01*
X73142Y-30685D02*
X73114Y-30671D01*
X73057Y-30671D01*
X73028Y-30685D01*
X73014Y-30700D01*
X72999Y-30728D01*
X72999Y-30814D01*
X73014Y-30842D01*
X73028Y-30857D01*
X73057Y-30871D01*
X73114Y-30871D01*
X73142Y-30857D01*
X72757Y-30857D02*
X72785Y-30871D01*
X72842Y-30871D01*
X72871Y-30857D01*
X72885Y-30828D01*
X72885Y-30714D01*
X72871Y-30685D01*
X72842Y-30671D01*
X72785Y-30671D01*
X72757Y-30685D01*
X72742Y-30714D01*
X72742Y-30742D01*
X72885Y-30771D01*
X72614Y-30671D02*
X72614Y-30971D01*
X72614Y-30685D02*
X72585Y-30671D01*
X72528Y-30671D01*
X72499Y-30685D01*
X72485Y-30700D01*
X72471Y-30728D01*
X72471Y-30814D01*
X72485Y-30842D01*
X72499Y-30857D01*
X72528Y-30871D01*
X72585Y-30871D01*
X72614Y-30857D01*
X72214Y-30871D02*
X72214Y-30714D01*
X72228Y-30685D01*
X72257Y-30671D01*
X72314Y-30671D01*
X72342Y-30685D01*
X72214Y-30857D02*
X72242Y-30871D01*
X72314Y-30871D01*
X72342Y-30857D01*
X72357Y-30828D01*
X72357Y-30800D01*
X72342Y-30771D01*
X72314Y-30757D01*
X72242Y-30757D01*
X72214Y-30742D01*
X72085Y-30857D02*
X72057Y-30871D01*
X71999Y-30871D01*
X71971Y-30857D01*
X71957Y-30828D01*
X71957Y-30814D01*
X71971Y-30785D01*
X71999Y-30771D01*
X72042Y-30771D01*
X72071Y-30757D01*
X72085Y-30728D01*
X72085Y-30714D01*
X72071Y-30685D01*
X72042Y-30671D01*
X71999Y-30671D01*
X71971Y-30685D01*
X71785Y-30871D02*
X71814Y-30857D01*
X71828Y-30828D01*
X71828Y-30571D01*
X71542Y-30871D02*
X71542Y-30714D01*
X71557Y-30685D01*
X71585Y-30671D01*
X71642Y-30671D01*
X71671Y-30685D01*
X71542Y-30857D02*
X71571Y-30871D01*
X71642Y-30871D01*
X71671Y-30857D01*
X71685Y-30828D01*
X71685Y-30800D01*
X71671Y-30771D01*
X71642Y-30757D01*
X71571Y-30757D01*
X71542Y-30742D01*
X71399Y-30871D02*
X71399Y-30571D01*
X71399Y-30685D02*
X71371Y-30671D01*
X71314Y-30671D01*
X71285Y-30685D01*
X71271Y-30700D01*
X71257Y-30728D01*
X71257Y-30814D01*
X71271Y-30842D01*
X71285Y-30857D01*
X71314Y-30871D01*
X71371Y-30871D01*
X71399Y-30857D01*
X71142Y-30857D02*
X71114Y-30871D01*
X71057Y-30871D01*
X71028Y-30857D01*
X71014Y-30828D01*
X71014Y-30814D01*
X71028Y-30785D01*
X71057Y-30771D01*
X71099Y-30771D01*
X71128Y-30757D01*
X71142Y-30728D01*
X71142Y-30714D01*
X71128Y-30685D01*
X71099Y-30671D01*
X71057Y-30671D01*
X71028Y-30685D01*
X70671Y-30557D02*
X70928Y-30942D01*
X70442Y-30871D02*
X70442Y-30571D01*
X70442Y-30857D02*
X70471Y-30871D01*
X70528Y-30871D01*
X70557Y-30857D01*
X70571Y-30842D01*
X70585Y-30814D01*
X70585Y-30728D01*
X70571Y-30700D01*
X70557Y-30685D01*
X70528Y-30671D01*
X70471Y-30671D01*
X70442Y-30685D01*
X70299Y-30871D02*
X70299Y-30671D01*
X70299Y-30728D02*
X70285Y-30700D01*
X70271Y-30685D01*
X70242Y-30671D01*
X70214Y-30671D01*
X70114Y-30757D02*
X69885Y-30757D01*
X69785Y-30671D02*
X69671Y-30671D01*
X69742Y-30871D02*
X69742Y-30614D01*
X69728Y-30585D01*
X69699Y-30571D01*
X69671Y-30571D01*
X69571Y-30871D02*
X69571Y-30671D01*
X69571Y-30728D02*
X69557Y-30700D01*
X69542Y-30685D01*
X69514Y-30671D01*
X69485Y-30671D01*
X69257Y-30871D02*
X69257Y-30714D01*
X69271Y-30685D01*
X69299Y-30671D01*
X69357Y-30671D01*
X69385Y-30685D01*
X69257Y-30857D02*
X69285Y-30871D01*
X69357Y-30871D01*
X69385Y-30857D01*
X69399Y-30828D01*
X69399Y-30800D01*
X69385Y-30771D01*
X69357Y-30757D01*
X69285Y-30757D01*
X69257Y-30742D01*
X69114Y-30671D02*
X69114Y-30871D01*
X69114Y-30700D02*
X69099Y-30685D01*
X69071Y-30671D01*
X69028Y-30671D01*
X68999Y-30685D01*
X68985Y-30714D01*
X68985Y-30871D01*
X68842Y-30871D02*
X68842Y-30571D01*
X68814Y-30757D02*
X68728Y-30871D01*
X68728Y-30671D02*
X68842Y-30785D01*
X68599Y-30757D02*
X68371Y-30757D01*
X68185Y-30871D02*
X68214Y-30857D01*
X68228Y-30828D01*
X68228Y-30571D01*
X68114Y-30671D02*
X67999Y-30671D01*
X68071Y-30571D02*
X68071Y-30828D01*
X68057Y-30857D01*
X68028Y-30871D01*
X67999Y-30871D01*
X67928Y-30671D02*
X67771Y-30671D01*
X67928Y-30871D01*
X67771Y-30871D01*
X67499Y-30871D02*
X67671Y-30871D01*
X67585Y-30871D02*
X67585Y-30571D01*
X67614Y-30614D01*
X67642Y-30642D01*
X67671Y-30657D01*
X67314Y-30571D02*
X67285Y-30571D01*
X67257Y-30585D01*
X67242Y-30600D01*
X67228Y-30628D01*
X67214Y-30685D01*
X67214Y-30757D01*
X67228Y-30814D01*
X67242Y-30842D01*
X67257Y-30857D01*
X67285Y-30871D01*
X67314Y-30871D01*
X67342Y-30857D01*
X67357Y-30842D01*
X67371Y-30814D01*
X67385Y-30757D01*
X67385Y-30685D01*
X67371Y-30628D01*
X67357Y-30600D01*
X67342Y-30585D01*
X67314Y-30571D01*
X67028Y-30571D02*
X66999Y-30571D01*
X66971Y-30585D01*
X66957Y-30600D01*
X66942Y-30628D01*
X66928Y-30685D01*
X66928Y-30757D01*
X66942Y-30814D01*
X66957Y-30842D01*
X66971Y-30857D01*
X66999Y-30871D01*
X67028Y-30871D01*
X67057Y-30857D01*
X67071Y-30842D01*
X67085Y-30814D01*
X67099Y-30757D01*
X67099Y-30685D01*
X67085Y-30628D01*
X67071Y-30600D01*
X67057Y-30585D01*
X67028Y-30571D01*
X66742Y-30571D02*
X66714Y-30571D01*
X66685Y-30585D01*
X66671Y-30600D01*
X66657Y-30628D01*
X66642Y-30685D01*
X66642Y-30757D01*
X66657Y-30814D01*
X66671Y-30842D01*
X66685Y-30857D01*
X66714Y-30871D01*
X66742Y-30871D01*
X66771Y-30857D01*
X66785Y-30842D01*
X66799Y-30814D01*
X66814Y-30757D01*
X66814Y-30685D01*
X66799Y-30628D01*
X66785Y-30600D01*
X66771Y-30585D01*
X66742Y-30571D01*
M02*
