G04 (created by PCBNEW (22-Jun-2014 BZR 4027)-stable) date Sat 16 Dec 2017 05:21:26 AM CST*
%MOIN*%
G04 Gerber Fmt 3.4, Leading zero omitted, Abs format*
%FSLAX34Y34*%
G01*
G70*
G90*
G04 APERTURE LIST*
%ADD10C,0.00590551*%
%ADD11C,0.006*%
%ADD12C,0.008*%
%ADD13C,0.01*%
%ADD14C,0.005*%
G04 APERTURE END LIST*
G54D10*
G54D11*
X63071Y-35042D02*
X63314Y-35042D01*
X63342Y-35028D01*
X63357Y-35014D01*
X63371Y-34985D01*
X63371Y-34928D01*
X63357Y-34900D01*
X63342Y-34885D01*
X63314Y-34871D01*
X63071Y-34871D01*
X63214Y-34628D02*
X63228Y-34585D01*
X63242Y-34571D01*
X63271Y-34557D01*
X63314Y-34557D01*
X63342Y-34571D01*
X63357Y-34585D01*
X63371Y-34614D01*
X63371Y-34728D01*
X63071Y-34728D01*
X63071Y-34628D01*
X63085Y-34600D01*
X63100Y-34585D01*
X63128Y-34571D01*
X63157Y-34571D01*
X63185Y-34585D01*
X63200Y-34600D01*
X63214Y-34628D01*
X63214Y-34728D01*
X63214Y-34428D02*
X63214Y-34328D01*
X63371Y-34285D02*
X63371Y-34428D01*
X63071Y-34428D01*
X63071Y-34285D01*
X63400Y-34228D02*
X63400Y-34000D01*
X63371Y-33928D02*
X63171Y-33928D01*
X63228Y-33928D02*
X63200Y-33914D01*
X63185Y-33900D01*
X63171Y-33871D01*
X63171Y-33842D01*
X63357Y-33628D02*
X63371Y-33657D01*
X63371Y-33714D01*
X63357Y-33742D01*
X63328Y-33757D01*
X63214Y-33757D01*
X63185Y-33742D01*
X63171Y-33714D01*
X63171Y-33657D01*
X63185Y-33628D01*
X63214Y-33614D01*
X63242Y-33614D01*
X63271Y-33757D01*
X63171Y-33528D02*
X63171Y-33414D01*
X63371Y-33485D02*
X63114Y-33485D01*
X63085Y-33471D01*
X63071Y-33442D01*
X63071Y-33414D01*
G54D12*
X91252Y-36161D02*
X91023Y-36161D01*
X91138Y-36161D02*
X91138Y-35761D01*
X91100Y-35819D01*
X91061Y-35857D01*
X91023Y-35876D01*
X91500Y-35761D02*
X91538Y-35761D01*
X91576Y-35780D01*
X91595Y-35800D01*
X91614Y-35838D01*
X91633Y-35914D01*
X91633Y-36009D01*
X91614Y-36085D01*
X91595Y-36123D01*
X91576Y-36142D01*
X91538Y-36161D01*
X91500Y-36161D01*
X91461Y-36142D01*
X91442Y-36123D01*
X91423Y-36085D01*
X91404Y-36009D01*
X91404Y-35914D01*
X91423Y-35838D01*
X91442Y-35800D01*
X91461Y-35780D01*
X91500Y-35761D01*
X91747Y-35761D02*
X91880Y-36161D01*
X92014Y-35761D01*
G54D11*
X84000Y-48757D02*
X84228Y-48757D01*
X84114Y-48871D02*
X84114Y-48642D01*
X84542Y-48871D02*
X84442Y-48728D01*
X84371Y-48871D02*
X84371Y-48571D01*
X84485Y-48571D01*
X84514Y-48585D01*
X84528Y-48600D01*
X84542Y-48628D01*
X84542Y-48671D01*
X84528Y-48700D01*
X84514Y-48714D01*
X84485Y-48728D01*
X84371Y-48728D01*
X84671Y-48714D02*
X84771Y-48714D01*
X84814Y-48871D02*
X84671Y-48871D01*
X84671Y-48571D01*
X84814Y-48571D01*
X85042Y-48714D02*
X84942Y-48714D01*
X84942Y-48871D02*
X84942Y-48571D01*
X85085Y-48571D01*
X85128Y-48900D02*
X85357Y-48900D01*
X85428Y-48871D02*
X85428Y-48571D01*
X85428Y-48685D02*
X85457Y-48671D01*
X85514Y-48671D01*
X85542Y-48685D01*
X85557Y-48700D01*
X85571Y-48728D01*
X85571Y-48814D01*
X85557Y-48842D01*
X85542Y-48857D01*
X85514Y-48871D01*
X85457Y-48871D01*
X85428Y-48857D01*
X85828Y-48671D02*
X85828Y-48871D01*
X85700Y-48671D02*
X85700Y-48828D01*
X85714Y-48857D01*
X85742Y-48871D01*
X85785Y-48871D01*
X85814Y-48857D01*
X85828Y-48842D01*
X85928Y-48671D02*
X86042Y-48671D01*
X85971Y-48871D02*
X85971Y-48614D01*
X85985Y-48585D01*
X86014Y-48571D01*
X86042Y-48571D01*
G54D12*
X76642Y-31009D02*
X76947Y-31009D01*
X76795Y-31161D02*
X76795Y-30857D01*
X77366Y-31161D02*
X77233Y-30971D01*
X77138Y-31161D02*
X77138Y-30761D01*
X77290Y-30761D01*
X77328Y-30780D01*
X77347Y-30800D01*
X77366Y-30838D01*
X77366Y-30895D01*
X77347Y-30933D01*
X77328Y-30952D01*
X77290Y-30971D01*
X77138Y-30971D01*
X77538Y-30952D02*
X77671Y-30952D01*
X77728Y-31161D02*
X77538Y-31161D01*
X77538Y-30761D01*
X77728Y-30761D01*
X78033Y-30952D02*
X77900Y-30952D01*
X77900Y-31161D02*
X77900Y-30761D01*
X78090Y-30761D01*
X76642Y-43509D02*
X76947Y-43509D01*
X77366Y-43661D02*
X77233Y-43471D01*
X77138Y-43661D02*
X77138Y-43261D01*
X77290Y-43261D01*
X77328Y-43280D01*
X77347Y-43300D01*
X77366Y-43338D01*
X77366Y-43395D01*
X77347Y-43433D01*
X77328Y-43452D01*
X77290Y-43471D01*
X77138Y-43471D01*
X77538Y-43452D02*
X77671Y-43452D01*
X77728Y-43661D02*
X77538Y-43661D01*
X77538Y-43261D01*
X77728Y-43261D01*
X78033Y-43452D02*
X77900Y-43452D01*
X77900Y-43661D02*
X77900Y-43261D01*
X78090Y-43261D01*
X84700Y-31161D02*
X84700Y-30761D01*
X84795Y-30761D01*
X84852Y-30780D01*
X84890Y-30819D01*
X84909Y-30857D01*
X84928Y-30933D01*
X84928Y-30990D01*
X84909Y-31066D01*
X84890Y-31104D01*
X84852Y-31142D01*
X84795Y-31161D01*
X84700Y-31161D01*
X85100Y-31161D02*
X85100Y-30895D01*
X85100Y-30971D02*
X85119Y-30933D01*
X85138Y-30914D01*
X85176Y-30895D01*
X85214Y-30895D01*
X85347Y-31123D02*
X85366Y-31142D01*
X85347Y-31161D01*
X85328Y-31142D01*
X85347Y-31123D01*
X85347Y-31161D01*
X85976Y-30952D02*
X85842Y-30952D01*
X85842Y-31161D02*
X85842Y-30761D01*
X86033Y-30761D01*
X86185Y-31161D02*
X86185Y-30895D01*
X86185Y-30971D02*
X86204Y-30933D01*
X86223Y-30914D01*
X86261Y-30895D01*
X86300Y-30895D01*
X86604Y-31161D02*
X86604Y-30952D01*
X86585Y-30914D01*
X86547Y-30895D01*
X86471Y-30895D01*
X86433Y-30914D01*
X86604Y-31142D02*
X86566Y-31161D01*
X86471Y-31161D01*
X86433Y-31142D01*
X86414Y-31104D01*
X86414Y-31066D01*
X86433Y-31028D01*
X86471Y-31009D01*
X86566Y-31009D01*
X86604Y-30990D01*
X86795Y-30895D02*
X86795Y-31161D01*
X86795Y-30933D02*
X86814Y-30914D01*
X86852Y-30895D01*
X86909Y-30895D01*
X86947Y-30914D01*
X86966Y-30952D01*
X86966Y-31161D01*
X87157Y-31161D02*
X87157Y-30761D01*
X87195Y-31009D02*
X87309Y-31161D01*
X87309Y-30895D02*
X87157Y-31047D01*
X87861Y-30761D02*
X87899Y-30761D01*
X87938Y-30780D01*
X87957Y-30800D01*
X87976Y-30838D01*
X87995Y-30914D01*
X87995Y-31009D01*
X87976Y-31085D01*
X87957Y-31123D01*
X87938Y-31142D01*
X87899Y-31161D01*
X87861Y-31161D01*
X87823Y-31142D01*
X87804Y-31123D01*
X87785Y-31085D01*
X87766Y-31009D01*
X87766Y-30914D01*
X87785Y-30838D01*
X87804Y-30800D01*
X87823Y-30780D01*
X87861Y-30761D01*
X88223Y-30933D02*
X88185Y-30914D01*
X88166Y-30895D01*
X88147Y-30857D01*
X88147Y-30838D01*
X88166Y-30800D01*
X88185Y-30780D01*
X88223Y-30761D01*
X88299Y-30761D01*
X88338Y-30780D01*
X88357Y-30800D01*
X88376Y-30838D01*
X88376Y-30857D01*
X88357Y-30895D01*
X88338Y-30914D01*
X88299Y-30933D01*
X88223Y-30933D01*
X88185Y-30952D01*
X88166Y-30971D01*
X88147Y-31009D01*
X88147Y-31085D01*
X88166Y-31123D01*
X88185Y-31142D01*
X88223Y-31161D01*
X88299Y-31161D01*
X88338Y-31142D01*
X88357Y-31123D01*
X88376Y-31085D01*
X88376Y-31009D01*
X88357Y-30971D01*
X88338Y-30952D01*
X88299Y-30933D01*
X88833Y-30742D02*
X88490Y-31257D01*
X88947Y-30800D02*
X88966Y-30780D01*
X89004Y-30761D01*
X89099Y-30761D01*
X89138Y-30780D01*
X89157Y-30800D01*
X89176Y-30838D01*
X89176Y-30876D01*
X89157Y-30933D01*
X88928Y-31161D01*
X89176Y-31161D01*
X89423Y-30761D02*
X89461Y-30761D01*
X89499Y-30780D01*
X89519Y-30800D01*
X89538Y-30838D01*
X89557Y-30914D01*
X89557Y-31009D01*
X89538Y-31085D01*
X89519Y-31123D01*
X89499Y-31142D01*
X89461Y-31161D01*
X89423Y-31161D01*
X89385Y-31142D01*
X89366Y-31123D01*
X89347Y-31085D01*
X89328Y-31009D01*
X89328Y-30914D01*
X89347Y-30838D01*
X89366Y-30800D01*
X89385Y-30780D01*
X89423Y-30761D01*
X89938Y-31161D02*
X89709Y-31161D01*
X89823Y-31161D02*
X89823Y-30761D01*
X89785Y-30819D01*
X89747Y-30857D01*
X89709Y-30876D01*
X90071Y-30761D02*
X90338Y-30761D01*
X90166Y-31161D01*
X84195Y-40780D02*
X84157Y-40761D01*
X84100Y-40761D01*
X84042Y-40780D01*
X84004Y-40819D01*
X83985Y-40857D01*
X83966Y-40933D01*
X83966Y-40990D01*
X83985Y-41066D01*
X84004Y-41104D01*
X84042Y-41142D01*
X84100Y-41161D01*
X84138Y-41161D01*
X84195Y-41142D01*
X84214Y-41123D01*
X84214Y-40990D01*
X84138Y-40990D01*
X84385Y-41161D02*
X84385Y-40761D01*
X84614Y-41161D01*
X84614Y-40761D01*
X84804Y-41161D02*
X84804Y-40761D01*
X84900Y-40761D01*
X84957Y-40780D01*
X84995Y-40819D01*
X85014Y-40857D01*
X85033Y-40933D01*
X85033Y-40990D01*
X85014Y-41066D01*
X84995Y-41104D01*
X84957Y-41142D01*
X84900Y-41161D01*
X84804Y-41161D01*
X79752Y-48911D02*
X79523Y-48911D01*
X79638Y-48911D02*
X79638Y-48511D01*
X79600Y-48569D01*
X79561Y-48607D01*
X79523Y-48626D01*
X79904Y-48550D02*
X79923Y-48530D01*
X79961Y-48511D01*
X80057Y-48511D01*
X80095Y-48530D01*
X80114Y-48550D01*
X80133Y-48588D01*
X80133Y-48626D01*
X80114Y-48683D01*
X79885Y-48911D01*
X80133Y-48911D01*
X80247Y-48511D02*
X80380Y-48911D01*
X80514Y-48511D01*
G54D13*
X65500Y-31500D02*
G75*
G03X65500Y-31500I-1750J0D01*
G74*
G01*
X65250Y-48750D02*
G75*
G03X65250Y-48750I-1750J0D01*
G74*
G01*
X94500Y-31500D02*
G75*
G03X94500Y-31500I-1750J0D01*
G74*
G01*
X79350Y-37250D02*
G75*
G03X79350Y-37250I-1850J0D01*
G74*
G01*
X78808Y-38911D02*
X78631Y-38734D01*
X79161Y-38558D02*
X78984Y-38381D01*
X79161Y-38558D02*
X78808Y-38911D01*
X74350Y-43050D02*
X71650Y-43050D01*
X71650Y-41450D02*
X74350Y-41450D01*
X71650Y-41450D02*
G75*
G03X70850Y-42250I0J-800D01*
G74*
G01*
X70850Y-42250D02*
G75*
G03X71650Y-43050I800J0D01*
G74*
G01*
X75150Y-42250D02*
G75*
G03X74350Y-41450I-800J0D01*
G74*
G01*
X74350Y-43050D02*
G75*
G03X75150Y-42250I0J800D01*
G74*
G01*
X71500Y-41750D02*
X74500Y-41750D01*
X74500Y-41750D02*
X74500Y-42750D01*
X74500Y-42750D02*
X71500Y-42750D01*
X71500Y-42750D02*
X71500Y-41750D01*
X65450Y-37350D02*
X65450Y-34650D01*
X67050Y-34650D02*
X67050Y-37350D01*
X67050Y-34650D02*
G75*
G03X66250Y-33850I-800J0D01*
G74*
G01*
X66250Y-33850D02*
G75*
G03X65450Y-34650I0J-800D01*
G74*
G01*
X66250Y-38150D02*
G75*
G03X67050Y-37350I0J800D01*
G74*
G01*
X65450Y-37350D02*
G75*
G03X66250Y-38150I800J0D01*
G74*
G01*
X66750Y-34500D02*
X66750Y-37500D01*
X66750Y-37500D02*
X65750Y-37500D01*
X65750Y-37500D02*
X65750Y-34500D01*
X65750Y-34500D02*
X66750Y-34500D01*
X67950Y-37850D02*
X67950Y-35150D01*
X69550Y-35150D02*
X69550Y-37850D01*
X69550Y-35150D02*
G75*
G03X68750Y-34350I-800J0D01*
G74*
G01*
X68750Y-34350D02*
G75*
G03X67950Y-35150I0J-800D01*
G74*
G01*
X68750Y-38650D02*
G75*
G03X69550Y-37850I0J800D01*
G74*
G01*
X67950Y-37850D02*
G75*
G03X68750Y-38650I800J0D01*
G74*
G01*
X69250Y-35000D02*
X69250Y-38000D01*
X69250Y-38000D02*
X68250Y-38000D01*
X68250Y-38000D02*
X68250Y-35000D01*
X68250Y-35000D02*
X69250Y-35000D01*
X81450Y-39600D02*
X81450Y-36900D01*
X83050Y-36900D02*
X83050Y-39600D01*
X83050Y-36900D02*
G75*
G03X82250Y-36100I-800J0D01*
G74*
G01*
X82250Y-36100D02*
G75*
G03X81450Y-36900I0J-800D01*
G74*
G01*
X82250Y-40400D02*
G75*
G03X83050Y-39600I0J800D01*
G74*
G01*
X81450Y-39600D02*
G75*
G03X82250Y-40400I800J0D01*
G74*
G01*
X82750Y-36750D02*
X82750Y-39750D01*
X82750Y-39750D02*
X81750Y-39750D01*
X81750Y-39750D02*
X81750Y-36750D01*
X81750Y-36750D02*
X82750Y-36750D01*
X71950Y-38350D02*
X71950Y-35650D01*
X73550Y-35650D02*
X73550Y-38350D01*
X73550Y-35650D02*
G75*
G03X72750Y-34850I-800J0D01*
G74*
G01*
X72750Y-34850D02*
G75*
G03X71950Y-35650I0J-800D01*
G74*
G01*
X72750Y-39150D02*
G75*
G03X73550Y-38350I0J800D01*
G74*
G01*
X71950Y-38350D02*
G75*
G03X72750Y-39150I800J0D01*
G74*
G01*
X73250Y-35500D02*
X73250Y-38500D01*
X73250Y-38500D02*
X72250Y-38500D01*
X72250Y-38500D02*
X72250Y-35500D01*
X72250Y-35500D02*
X73250Y-35500D01*
X90750Y-33500D02*
G75*
G03X90750Y-33500I-500J0D01*
G74*
G01*
X90250Y-33500D02*
X90250Y-34500D01*
X64500Y-39500D02*
X64500Y-39100D01*
X64500Y-39100D02*
X64100Y-39100D01*
X64100Y-39100D02*
X64100Y-35900D01*
X64100Y-35900D02*
X64900Y-35900D01*
X64900Y-35900D02*
X64900Y-39100D01*
X64900Y-39100D02*
X64500Y-39100D01*
X64500Y-35500D02*
X64500Y-35900D01*
X63000Y-46500D02*
X63000Y-46100D01*
X63000Y-46100D02*
X62600Y-46100D01*
X62600Y-46100D02*
X62600Y-42900D01*
X62600Y-42900D02*
X63400Y-42900D01*
X63400Y-42900D02*
X63400Y-46100D01*
X63400Y-46100D02*
X63000Y-46100D01*
X63000Y-42500D02*
X63000Y-42900D01*
X92500Y-40750D02*
X92500Y-41150D01*
X92500Y-41150D02*
X92900Y-41150D01*
X92900Y-41150D02*
X92900Y-44350D01*
X92900Y-44350D02*
X92100Y-44350D01*
X92100Y-44350D02*
X92100Y-41150D01*
X92100Y-41150D02*
X92500Y-41150D01*
X92500Y-44750D02*
X92500Y-44350D01*
X71750Y-43750D02*
X71750Y-44150D01*
X71750Y-44150D02*
X72150Y-44150D01*
X72150Y-44150D02*
X72150Y-47350D01*
X72150Y-47350D02*
X71350Y-47350D01*
X71350Y-47350D02*
X71350Y-44150D01*
X71350Y-44150D02*
X71750Y-44150D01*
X71750Y-47750D02*
X71750Y-47350D01*
X81000Y-46500D02*
X80600Y-46500D01*
X80600Y-46500D02*
X80600Y-46900D01*
X80600Y-46900D02*
X77400Y-46900D01*
X77400Y-46900D02*
X77400Y-46100D01*
X77400Y-46100D02*
X80600Y-46100D01*
X80600Y-46100D02*
X80600Y-46500D01*
X77000Y-46500D02*
X77400Y-46500D01*
X77000Y-47500D02*
X77400Y-47500D01*
X77400Y-47500D02*
X77400Y-47100D01*
X77400Y-47100D02*
X80600Y-47100D01*
X80600Y-47100D02*
X80600Y-47900D01*
X80600Y-47900D02*
X77400Y-47900D01*
X77400Y-47900D02*
X77400Y-47500D01*
X81000Y-47500D02*
X80600Y-47500D01*
X86250Y-39250D02*
X86250Y-39650D01*
X86250Y-39650D02*
X86650Y-39650D01*
X86650Y-39650D02*
X86650Y-42850D01*
X86650Y-42850D02*
X85850Y-42850D01*
X85850Y-42850D02*
X85850Y-39650D01*
X85850Y-39650D02*
X86250Y-39650D01*
X86250Y-43250D02*
X86250Y-42850D01*
X87500Y-34550D02*
G75*
G03X87800Y-34250I0J300D01*
G74*
G01*
X87200Y-34250D02*
G75*
G03X87500Y-34550I300J0D01*
G74*
G01*
X88500Y-34250D02*
X88500Y-38250D01*
X88500Y-38250D02*
X86500Y-38250D01*
X86500Y-38250D02*
X86500Y-34250D01*
X86500Y-34250D02*
X88500Y-34250D01*
X68700Y-45250D02*
G75*
G03X69000Y-45550I300J0D01*
G74*
G01*
X69000Y-44950D02*
G75*
G03X68700Y-45250I0J-300D01*
G74*
G01*
X69000Y-46250D02*
X65000Y-46250D01*
X65000Y-46250D02*
X65000Y-44250D01*
X65000Y-44250D02*
X69000Y-44250D01*
X69000Y-44250D02*
X69000Y-46250D01*
X80500Y-32250D02*
X81250Y-32250D01*
X83750Y-32250D02*
X84500Y-32250D01*
X83500Y-31750D02*
X83500Y-32750D01*
X81250Y-32750D02*
X83750Y-32750D01*
X81250Y-31750D02*
X81250Y-32750D01*
X83750Y-31750D02*
X83750Y-32750D01*
X81250Y-31750D02*
X83750Y-31750D01*
X84500Y-33750D02*
X84500Y-34500D01*
X84500Y-37000D02*
X84500Y-37750D01*
X85000Y-36750D02*
X84000Y-36750D01*
X84000Y-34500D02*
X84000Y-37000D01*
X85000Y-34500D02*
X84000Y-34500D01*
X85000Y-37000D02*
X84000Y-37000D01*
X85000Y-34500D02*
X85000Y-37000D01*
X67000Y-41750D02*
X66250Y-41750D01*
X63750Y-41750D02*
X63000Y-41750D01*
X64000Y-42250D02*
X64000Y-41250D01*
X66250Y-41250D02*
X63750Y-41250D01*
X66250Y-42250D02*
X66250Y-41250D01*
X63750Y-42250D02*
X63750Y-41250D01*
X66250Y-42250D02*
X63750Y-42250D01*
X67500Y-40000D02*
X67500Y-41000D01*
X64500Y-40000D02*
X64500Y-41000D01*
X67500Y-41000D02*
X64500Y-41000D01*
X64500Y-40000D02*
X67500Y-40000D01*
X76000Y-43750D02*
X76000Y-44750D01*
X73000Y-43750D02*
X73000Y-44750D01*
X76000Y-44750D02*
X73000Y-44750D01*
X73000Y-43750D02*
X76000Y-43750D01*
X64750Y-45500D02*
X63750Y-45500D01*
X64750Y-42500D02*
X63750Y-42500D01*
X63750Y-45500D02*
X63750Y-42500D01*
X64750Y-42500D02*
X64750Y-45500D01*
X84000Y-30750D02*
X84000Y-31750D01*
X81000Y-30750D02*
X81000Y-31750D01*
X84000Y-31750D02*
X81000Y-31750D01*
X81000Y-30750D02*
X84000Y-30750D01*
X71250Y-38250D02*
X70250Y-38250D01*
X71250Y-35250D02*
X70250Y-35250D01*
X70250Y-38250D02*
X70250Y-35250D01*
X71250Y-35250D02*
X71250Y-38250D01*
X89000Y-32750D02*
X89000Y-33750D01*
X86000Y-32750D02*
X86000Y-33750D01*
X89000Y-33750D02*
X86000Y-33750D01*
X86000Y-32750D02*
X89000Y-32750D01*
X86000Y-32750D02*
X86000Y-31750D01*
X89000Y-32750D02*
X89000Y-31750D01*
X86000Y-31750D02*
X89000Y-31750D01*
X89000Y-32750D02*
X86000Y-32750D01*
X89500Y-38750D02*
X89500Y-39750D01*
X86500Y-38750D02*
X86500Y-39750D01*
X89500Y-39750D02*
X86500Y-39750D01*
X86500Y-38750D02*
X89500Y-38750D01*
X77750Y-42000D02*
X77750Y-41000D01*
X80750Y-42000D02*
X80750Y-41000D01*
X77750Y-41000D02*
X80750Y-41000D01*
X80750Y-42000D02*
X77750Y-42000D01*
X75000Y-45250D02*
X76000Y-45250D01*
X75000Y-48250D02*
X76000Y-48250D01*
X76000Y-45250D02*
X76000Y-48250D01*
X75000Y-48250D02*
X75000Y-45250D01*
X69500Y-43750D02*
X70500Y-43750D01*
X69500Y-46750D02*
X70500Y-46750D01*
X70500Y-43750D02*
X70500Y-46750D01*
X69500Y-46750D02*
X69500Y-43750D01*
X89650Y-39250D02*
X90650Y-39250D01*
X90650Y-39250D02*
G75*
G03X90650Y-39250I-500J0D01*
G74*
G01*
X89650Y-40200D02*
X89650Y-38300D01*
X93350Y-38300D02*
X93350Y-40200D01*
X93350Y-40200D02*
X89650Y-40200D01*
X89650Y-38300D02*
X93350Y-38300D01*
G54D10*
X83650Y-48250D02*
X83650Y-47400D01*
X83650Y-47400D02*
X81850Y-47400D01*
X81850Y-47400D02*
X81850Y-48250D01*
X81850Y-48250D02*
G75*
G03X82750Y-49150I900J0D01*
G74*
G01*
X82750Y-49150D02*
G75*
G03X83650Y-48250I0J900D01*
G74*
G01*
G54D13*
X75500Y-33250D02*
X75000Y-33250D01*
X79500Y-33250D02*
X80000Y-33250D01*
X75500Y-33250D02*
X75900Y-33250D01*
X75900Y-33250D02*
X75900Y-32850D01*
X75900Y-32850D02*
X79100Y-32850D01*
X79100Y-32850D02*
X79100Y-33650D01*
X79100Y-33650D02*
X75900Y-33650D01*
X75900Y-33650D02*
X75900Y-33250D01*
X79500Y-33250D02*
X79100Y-33250D01*
X80250Y-42750D02*
X84500Y-42750D01*
X81750Y-44750D02*
X84000Y-44750D01*
X77500Y-44750D02*
X81750Y-44750D01*
X85450Y-47350D02*
X85450Y-44650D01*
X87050Y-44650D02*
X87050Y-47350D01*
X87050Y-44650D02*
G75*
G03X86250Y-43850I-800J0D01*
G74*
G01*
X86250Y-43850D02*
G75*
G03X85450Y-44650I0J-800D01*
G74*
G01*
X86250Y-48150D02*
G75*
G03X87050Y-47350I0J800D01*
G74*
G01*
X85450Y-47350D02*
G75*
G03X86250Y-48150I800J0D01*
G74*
G01*
X86750Y-44500D02*
X86750Y-47500D01*
X86750Y-47500D02*
X85750Y-47500D01*
X85750Y-47500D02*
X85750Y-44500D01*
X85750Y-44500D02*
X86750Y-44500D01*
X87450Y-46100D02*
X87450Y-43400D01*
X89050Y-43400D02*
X89050Y-46100D01*
X89050Y-43400D02*
G75*
G03X88250Y-42600I-800J0D01*
G74*
G01*
X88250Y-42600D02*
G75*
G03X87450Y-43400I0J-800D01*
G74*
G01*
X88250Y-46900D02*
G75*
G03X89050Y-46100I0J800D01*
G74*
G01*
X87450Y-46100D02*
G75*
G03X88250Y-46900I800J0D01*
G74*
G01*
X88750Y-43250D02*
X88750Y-46250D01*
X88750Y-46250D02*
X87750Y-46250D01*
X87750Y-46250D02*
X87750Y-43250D01*
X87750Y-43250D02*
X88750Y-43250D01*
X89950Y-46100D02*
X89950Y-43400D01*
X91550Y-43400D02*
X91550Y-46100D01*
X91550Y-43400D02*
G75*
G03X90750Y-42600I-800J0D01*
G74*
G01*
X90750Y-42600D02*
G75*
G03X89950Y-43400I0J-800D01*
G74*
G01*
X90750Y-46900D02*
G75*
G03X91550Y-46100I0J800D01*
G74*
G01*
X89950Y-46100D02*
G75*
G03X90750Y-46900I800J0D01*
G74*
G01*
X91250Y-43250D02*
X91250Y-46250D01*
X91250Y-46250D02*
X90250Y-46250D01*
X90250Y-46250D02*
X90250Y-43250D01*
X90250Y-43250D02*
X91250Y-43250D01*
X65250Y-33000D02*
X67250Y-33000D01*
X67250Y-38500D02*
X65250Y-38500D01*
X66250Y-38500D02*
X66250Y-39500D01*
X66250Y-32000D02*
X66250Y-33000D01*
X67250Y-33000D02*
X67250Y-38500D01*
X65250Y-38500D02*
X65250Y-33000D01*
X67750Y-33500D02*
X69750Y-33500D01*
X69750Y-39000D02*
X67750Y-39000D01*
X68750Y-39000D02*
X68750Y-40000D01*
X68750Y-32500D02*
X68750Y-33500D01*
X69750Y-33500D02*
X69750Y-39000D01*
X67750Y-39000D02*
X67750Y-33500D01*
X89750Y-41750D02*
X91750Y-41750D01*
X91750Y-47250D02*
X89750Y-47250D01*
X90750Y-47250D02*
X90750Y-48250D01*
X90750Y-40750D02*
X90750Y-41750D01*
X91750Y-41750D02*
X91750Y-47250D01*
X89750Y-47250D02*
X89750Y-41750D01*
X87250Y-41750D02*
X89250Y-41750D01*
X89250Y-47250D02*
X87250Y-47250D01*
X88250Y-47250D02*
X88250Y-48250D01*
X88250Y-40750D02*
X88250Y-41750D01*
X89250Y-41750D02*
X89250Y-47250D01*
X87250Y-47250D02*
X87250Y-41750D01*
X81250Y-35250D02*
X83250Y-35250D01*
X83250Y-40750D02*
X81250Y-40750D01*
X82250Y-40750D02*
X82250Y-41750D01*
X82250Y-34250D02*
X82250Y-35250D01*
X83250Y-35250D02*
X83250Y-40750D01*
X81250Y-40750D02*
X81250Y-35250D01*
X71750Y-34000D02*
X73750Y-34000D01*
X73750Y-39500D02*
X71750Y-39500D01*
X72750Y-39500D02*
X72750Y-40500D01*
X72750Y-33000D02*
X72750Y-34000D01*
X73750Y-34000D02*
X73750Y-39500D01*
X71750Y-39500D02*
X71750Y-34000D01*
X70000Y-43250D02*
X70000Y-41250D01*
X75500Y-41250D02*
X75500Y-43250D01*
X75500Y-42250D02*
X76500Y-42250D01*
X69000Y-42250D02*
X70000Y-42250D01*
X70000Y-41250D02*
X75500Y-41250D01*
X75500Y-43250D02*
X70000Y-43250D01*
G54D11*
X75878Y-36042D02*
X75666Y-35830D01*
X76080Y-35800D02*
X76080Y-35820D01*
X76060Y-35861D01*
X76040Y-35881D01*
X76000Y-35901D01*
X75959Y-35901D01*
X75929Y-35891D01*
X75878Y-35861D01*
X75848Y-35830D01*
X75818Y-35780D01*
X75808Y-35750D01*
X75808Y-35709D01*
X75828Y-35669D01*
X75848Y-35648D01*
X75888Y-35628D01*
X75909Y-35628D01*
X75989Y-35547D02*
X75989Y-35527D01*
X76000Y-35497D01*
X76050Y-35446D01*
X76080Y-35436D01*
X76101Y-35436D01*
X76131Y-35446D01*
X76151Y-35467D01*
X76171Y-35507D01*
X76171Y-35750D01*
X76303Y-35618D01*
X78724Y-39697D02*
X78623Y-39798D01*
X78411Y-39585D01*
X78552Y-39444D02*
X78674Y-39323D01*
X78825Y-39595D02*
X78613Y-39383D01*
X78724Y-39272D02*
X78866Y-39131D01*
X78936Y-39484D01*
X79078Y-39343D01*
X79270Y-39151D02*
X79148Y-39272D01*
X79209Y-39212D02*
X78997Y-39000D01*
X79007Y-39050D01*
X79007Y-39090D01*
X78997Y-39121D01*
X79189Y-38808D02*
X79209Y-38787D01*
X79239Y-38777D01*
X79260Y-38777D01*
X79290Y-38787D01*
X79340Y-38818D01*
X79391Y-38868D01*
X79421Y-38919D01*
X79431Y-38949D01*
X79431Y-38969D01*
X79421Y-39000D01*
X79401Y-39020D01*
X79371Y-39030D01*
X79351Y-39030D01*
X79320Y-39020D01*
X79270Y-38989D01*
X79219Y-38939D01*
X79189Y-38888D01*
X79179Y-38858D01*
X79179Y-38838D01*
X79189Y-38808D01*
X79391Y-38606D02*
X79411Y-38585D01*
X79441Y-38575D01*
X79462Y-38575D01*
X79492Y-38585D01*
X79542Y-38616D01*
X79593Y-38666D01*
X79623Y-38717D01*
X79633Y-38747D01*
X79633Y-38767D01*
X79623Y-38797D01*
X79603Y-38818D01*
X79573Y-38828D01*
X79553Y-38828D01*
X79522Y-38818D01*
X79472Y-38787D01*
X79421Y-38737D01*
X79391Y-38686D01*
X79381Y-38656D01*
X79381Y-38636D01*
X79391Y-38606D01*
X79593Y-38404D02*
X79613Y-38383D01*
X79643Y-38373D01*
X79664Y-38373D01*
X79694Y-38383D01*
X79744Y-38414D01*
X79795Y-38464D01*
X79825Y-38515D01*
X79835Y-38545D01*
X79835Y-38565D01*
X79825Y-38595D01*
X79805Y-38616D01*
X79775Y-38626D01*
X79755Y-38626D01*
X79724Y-38616D01*
X79674Y-38585D01*
X79623Y-38535D01*
X79593Y-38484D01*
X79583Y-38454D01*
X79583Y-38434D01*
X79593Y-38404D01*
X79896Y-38404D02*
X79997Y-38302D01*
X79936Y-38484D02*
X79795Y-38201D01*
X80078Y-38343D01*
G54D14*
X72958Y-42351D02*
X72875Y-42232D01*
X72815Y-42351D02*
X72815Y-42101D01*
X72910Y-42101D01*
X72934Y-42113D01*
X72946Y-42125D01*
X72958Y-42148D01*
X72958Y-42184D01*
X72946Y-42208D01*
X72934Y-42220D01*
X72910Y-42232D01*
X72815Y-42232D01*
X73184Y-42101D02*
X73065Y-42101D01*
X73053Y-42220D01*
X73065Y-42208D01*
X73089Y-42196D01*
X73148Y-42196D01*
X73172Y-42208D01*
X73184Y-42220D01*
X73196Y-42244D01*
X73196Y-42303D01*
X73184Y-42327D01*
X73172Y-42339D01*
X73148Y-42351D01*
X73089Y-42351D01*
X73065Y-42339D01*
X73053Y-42327D01*
X70351Y-41851D02*
X70208Y-41851D01*
X70279Y-41851D02*
X70279Y-41601D01*
X70255Y-41636D01*
X70232Y-41660D01*
X70208Y-41672D01*
X70446Y-41625D02*
X70458Y-41613D01*
X70482Y-41601D01*
X70541Y-41601D01*
X70565Y-41613D01*
X70577Y-41625D01*
X70589Y-41648D01*
X70589Y-41672D01*
X70577Y-41708D01*
X70434Y-41851D01*
X70589Y-41851D01*
X70696Y-41851D02*
X70696Y-41601D01*
X70720Y-41755D02*
X70791Y-41851D01*
X70791Y-41684D02*
X70696Y-41779D01*
X66351Y-36041D02*
X66232Y-36125D01*
X66351Y-36184D02*
X66101Y-36184D01*
X66101Y-36089D01*
X66113Y-36065D01*
X66125Y-36053D01*
X66148Y-36041D01*
X66184Y-36041D01*
X66208Y-36053D01*
X66220Y-36065D01*
X66232Y-36089D01*
X66232Y-36184D01*
X66125Y-35946D02*
X66113Y-35934D01*
X66101Y-35910D01*
X66101Y-35851D01*
X66113Y-35827D01*
X66125Y-35815D01*
X66148Y-35803D01*
X66172Y-35803D01*
X66208Y-35815D01*
X66351Y-35958D01*
X66351Y-35803D01*
X66851Y-33803D02*
X66851Y-33636D01*
X67101Y-33744D01*
X66851Y-33494D02*
X66851Y-33470D01*
X66863Y-33446D01*
X66875Y-33434D01*
X66898Y-33422D01*
X66946Y-33410D01*
X67005Y-33410D01*
X67053Y-33422D01*
X67077Y-33434D01*
X67089Y-33446D01*
X67101Y-33470D01*
X67101Y-33494D01*
X67089Y-33517D01*
X67077Y-33529D01*
X67053Y-33541D01*
X67005Y-33553D01*
X66946Y-33553D01*
X66898Y-33541D01*
X66875Y-33529D01*
X66863Y-33517D01*
X66851Y-33494D01*
X67101Y-33303D02*
X66851Y-33303D01*
X67005Y-33279D02*
X67101Y-33208D01*
X66934Y-33208D02*
X67029Y-33303D01*
X68851Y-36541D02*
X68732Y-36625D01*
X68851Y-36684D02*
X68601Y-36684D01*
X68601Y-36589D01*
X68613Y-36565D01*
X68625Y-36553D01*
X68648Y-36541D01*
X68684Y-36541D01*
X68708Y-36553D01*
X68720Y-36565D01*
X68732Y-36589D01*
X68732Y-36684D01*
X68684Y-36327D02*
X68851Y-36327D01*
X68589Y-36386D02*
X68767Y-36446D01*
X68767Y-36291D01*
X69601Y-34148D02*
X69601Y-34291D01*
X69601Y-34220D02*
X69351Y-34220D01*
X69386Y-34244D01*
X69410Y-34267D01*
X69422Y-34291D01*
X69375Y-34053D02*
X69363Y-34041D01*
X69351Y-34017D01*
X69351Y-33958D01*
X69363Y-33934D01*
X69375Y-33922D01*
X69398Y-33910D01*
X69422Y-33910D01*
X69458Y-33922D01*
X69601Y-34065D01*
X69601Y-33910D01*
X69601Y-33803D02*
X69351Y-33803D01*
X69505Y-33779D02*
X69601Y-33708D01*
X69434Y-33708D02*
X69529Y-33803D01*
X82351Y-38291D02*
X82232Y-38375D01*
X82351Y-38434D02*
X82101Y-38434D01*
X82101Y-38339D01*
X82113Y-38315D01*
X82125Y-38303D01*
X82148Y-38291D01*
X82184Y-38291D01*
X82208Y-38303D01*
X82220Y-38315D01*
X82232Y-38339D01*
X82232Y-38434D01*
X82101Y-38208D02*
X82101Y-38053D01*
X82196Y-38136D01*
X82196Y-38101D01*
X82208Y-38077D01*
X82220Y-38065D01*
X82244Y-38053D01*
X82303Y-38053D01*
X82327Y-38065D01*
X82339Y-38077D01*
X82351Y-38101D01*
X82351Y-38172D01*
X82339Y-38196D01*
X82327Y-38208D01*
X82851Y-36053D02*
X82851Y-35886D01*
X83101Y-35994D01*
X82851Y-35744D02*
X82851Y-35720D01*
X82863Y-35696D01*
X82875Y-35684D01*
X82898Y-35672D01*
X82946Y-35660D01*
X83005Y-35660D01*
X83053Y-35672D01*
X83077Y-35684D01*
X83089Y-35696D01*
X83101Y-35720D01*
X83101Y-35744D01*
X83089Y-35767D01*
X83077Y-35779D01*
X83053Y-35791D01*
X83005Y-35803D01*
X82946Y-35803D01*
X82898Y-35791D01*
X82875Y-35779D01*
X82863Y-35767D01*
X82851Y-35744D01*
X83101Y-35553D02*
X82851Y-35553D01*
X83005Y-35529D02*
X83101Y-35458D01*
X82934Y-35458D02*
X83029Y-35553D01*
X72851Y-37041D02*
X72732Y-37125D01*
X72851Y-37184D02*
X72601Y-37184D01*
X72601Y-37089D01*
X72613Y-37065D01*
X72625Y-37053D01*
X72648Y-37041D01*
X72684Y-37041D01*
X72708Y-37053D01*
X72720Y-37065D01*
X72732Y-37089D01*
X72732Y-37184D01*
X72851Y-36803D02*
X72851Y-36946D01*
X72851Y-36875D02*
X72601Y-36875D01*
X72636Y-36898D01*
X72660Y-36922D01*
X72672Y-36946D01*
X73601Y-34666D02*
X73601Y-34809D01*
X73601Y-34738D02*
X73351Y-34738D01*
X73386Y-34761D01*
X73410Y-34785D01*
X73422Y-34809D01*
X73375Y-34571D02*
X73363Y-34559D01*
X73351Y-34535D01*
X73351Y-34476D01*
X73363Y-34452D01*
X73375Y-34440D01*
X73398Y-34428D01*
X73422Y-34428D01*
X73458Y-34440D01*
X73601Y-34583D01*
X73601Y-34428D01*
X73351Y-34273D02*
X73351Y-34250D01*
X73363Y-34226D01*
X73375Y-34214D01*
X73398Y-34202D01*
X73446Y-34190D01*
X73505Y-34190D01*
X73553Y-34202D01*
X73577Y-34214D01*
X73589Y-34226D01*
X73601Y-34250D01*
X73601Y-34273D01*
X73589Y-34297D01*
X73577Y-34309D01*
X73553Y-34321D01*
X73505Y-34333D01*
X73446Y-34333D01*
X73398Y-34321D01*
X73375Y-34309D01*
X73363Y-34297D01*
X73351Y-34273D01*
X90351Y-32660D02*
X90232Y-32744D01*
X90351Y-32803D02*
X90101Y-32803D01*
X90101Y-32708D01*
X90113Y-32684D01*
X90125Y-32672D01*
X90148Y-32660D01*
X90184Y-32660D01*
X90208Y-32672D01*
X90220Y-32684D01*
X90232Y-32708D01*
X90232Y-32803D01*
X90351Y-32422D02*
X90351Y-32565D01*
X90351Y-32494D02*
X90101Y-32494D01*
X90136Y-32517D01*
X90160Y-32541D01*
X90172Y-32565D01*
X90101Y-32208D02*
X90101Y-32255D01*
X90113Y-32279D01*
X90125Y-32291D01*
X90160Y-32315D01*
X90208Y-32327D01*
X90303Y-32327D01*
X90327Y-32315D01*
X90339Y-32303D01*
X90351Y-32279D01*
X90351Y-32232D01*
X90339Y-32208D01*
X90327Y-32196D01*
X90303Y-32184D01*
X90244Y-32184D01*
X90220Y-32196D01*
X90208Y-32208D01*
X90196Y-32232D01*
X90196Y-32279D01*
X90208Y-32303D01*
X90220Y-32315D01*
X90244Y-32327D01*
X91351Y-34726D02*
X91101Y-34726D01*
X91351Y-34583D01*
X91101Y-34583D01*
X91101Y-34500D02*
X91101Y-34357D01*
X91351Y-34428D02*
X91101Y-34428D01*
X91327Y-34130D02*
X91339Y-34142D01*
X91351Y-34178D01*
X91351Y-34202D01*
X91339Y-34238D01*
X91315Y-34261D01*
X91291Y-34273D01*
X91244Y-34285D01*
X91208Y-34285D01*
X91160Y-34273D01*
X91136Y-34261D01*
X91113Y-34238D01*
X91101Y-34202D01*
X91101Y-34178D01*
X91113Y-34142D01*
X91125Y-34130D01*
X91351Y-33702D02*
X91351Y-33845D01*
X91351Y-33773D02*
X91101Y-33773D01*
X91136Y-33797D01*
X91160Y-33821D01*
X91172Y-33845D01*
X91101Y-33547D02*
X91101Y-33523D01*
X91113Y-33500D01*
X91125Y-33488D01*
X91148Y-33476D01*
X91196Y-33464D01*
X91255Y-33464D01*
X91303Y-33476D01*
X91327Y-33488D01*
X91339Y-33500D01*
X91351Y-33523D01*
X91351Y-33547D01*
X91339Y-33571D01*
X91327Y-33583D01*
X91303Y-33595D01*
X91255Y-33607D01*
X91196Y-33607D01*
X91148Y-33595D01*
X91125Y-33583D01*
X91113Y-33571D01*
X91101Y-33547D01*
X91351Y-33357D02*
X91101Y-33357D01*
X91255Y-33333D02*
X91351Y-33261D01*
X91184Y-33261D02*
X91279Y-33357D01*
G54D11*
X64621Y-38350D02*
X64478Y-38450D01*
X64621Y-38521D02*
X64321Y-38521D01*
X64321Y-38407D01*
X64335Y-38378D01*
X64350Y-38364D01*
X64378Y-38350D01*
X64421Y-38350D01*
X64450Y-38364D01*
X64464Y-38378D01*
X64478Y-38407D01*
X64478Y-38521D01*
X64321Y-38092D02*
X64321Y-38150D01*
X64335Y-38178D01*
X64350Y-38192D01*
X64392Y-38221D01*
X64450Y-38235D01*
X64564Y-38235D01*
X64592Y-38221D01*
X64607Y-38207D01*
X64621Y-38178D01*
X64621Y-38121D01*
X64607Y-38092D01*
X64592Y-38078D01*
X64564Y-38064D01*
X64492Y-38064D01*
X64464Y-38078D01*
X64450Y-38092D01*
X64435Y-38121D01*
X64435Y-38178D01*
X64450Y-38207D01*
X64464Y-38221D01*
X64492Y-38235D01*
X64621Y-36878D02*
X64621Y-37049D01*
X64621Y-36964D02*
X64321Y-36964D01*
X64364Y-36992D01*
X64392Y-37021D01*
X64407Y-37049D01*
X64321Y-36692D02*
X64321Y-36664D01*
X64335Y-36635D01*
X64350Y-36621D01*
X64378Y-36607D01*
X64435Y-36592D01*
X64507Y-36592D01*
X64564Y-36607D01*
X64592Y-36621D01*
X64607Y-36635D01*
X64621Y-36664D01*
X64621Y-36692D01*
X64607Y-36721D01*
X64592Y-36735D01*
X64564Y-36749D01*
X64507Y-36764D01*
X64435Y-36764D01*
X64378Y-36749D01*
X64350Y-36735D01*
X64335Y-36721D01*
X64321Y-36692D01*
X64621Y-36464D02*
X64321Y-36464D01*
X64507Y-36435D02*
X64621Y-36350D01*
X64421Y-36350D02*
X64535Y-36464D01*
X63121Y-45492D02*
X62978Y-45592D01*
X63121Y-45664D02*
X62821Y-45664D01*
X62821Y-45550D01*
X62835Y-45521D01*
X62850Y-45507D01*
X62878Y-45492D01*
X62921Y-45492D01*
X62950Y-45507D01*
X62964Y-45521D01*
X62978Y-45550D01*
X62978Y-45664D01*
X63121Y-45207D02*
X63121Y-45378D01*
X63121Y-45292D02*
X62821Y-45292D01*
X62864Y-45321D01*
X62892Y-45350D01*
X62907Y-45378D01*
X63121Y-44921D02*
X63121Y-45092D01*
X63121Y-45007D02*
X62821Y-45007D01*
X62864Y-45035D01*
X62892Y-45064D01*
X62907Y-45092D01*
X62850Y-44049D02*
X62835Y-44035D01*
X62821Y-44007D01*
X62821Y-43935D01*
X62835Y-43907D01*
X62850Y-43892D01*
X62878Y-43878D01*
X62907Y-43878D01*
X62950Y-43892D01*
X63121Y-44064D01*
X63121Y-43878D01*
X63121Y-43749D02*
X62821Y-43749D01*
X63007Y-43721D02*
X63121Y-43635D01*
X62921Y-43635D02*
X63035Y-43749D01*
X62850Y-43521D02*
X62835Y-43507D01*
X62821Y-43478D01*
X62821Y-43407D01*
X62835Y-43378D01*
X62850Y-43364D01*
X62878Y-43350D01*
X62907Y-43350D01*
X62950Y-43364D01*
X63121Y-43535D01*
X63121Y-43350D01*
X92621Y-42142D02*
X92478Y-42242D01*
X92621Y-42314D02*
X92321Y-42314D01*
X92321Y-42200D01*
X92335Y-42171D01*
X92350Y-42157D01*
X92378Y-42142D01*
X92421Y-42142D01*
X92450Y-42157D01*
X92464Y-42171D01*
X92478Y-42200D01*
X92478Y-42314D01*
X92621Y-41857D02*
X92621Y-42028D01*
X92621Y-41942D02*
X92321Y-41942D01*
X92364Y-41971D01*
X92392Y-42000D01*
X92407Y-42028D01*
X92450Y-41685D02*
X92435Y-41714D01*
X92421Y-41728D01*
X92392Y-41742D01*
X92378Y-41742D01*
X92350Y-41728D01*
X92335Y-41714D01*
X92321Y-41685D01*
X92321Y-41628D01*
X92335Y-41600D01*
X92350Y-41585D01*
X92378Y-41571D01*
X92392Y-41571D01*
X92421Y-41585D01*
X92435Y-41600D01*
X92450Y-41628D01*
X92450Y-41685D01*
X92464Y-41714D01*
X92478Y-41728D01*
X92507Y-41742D01*
X92564Y-41742D01*
X92592Y-41728D01*
X92607Y-41714D01*
X92621Y-41685D01*
X92621Y-41628D01*
X92607Y-41600D01*
X92592Y-41585D01*
X92564Y-41571D01*
X92507Y-41571D01*
X92478Y-41585D01*
X92464Y-41600D01*
X92450Y-41628D01*
X92350Y-43928D02*
X92335Y-43914D01*
X92321Y-43885D01*
X92321Y-43814D01*
X92335Y-43785D01*
X92350Y-43771D01*
X92378Y-43757D01*
X92407Y-43757D01*
X92450Y-43771D01*
X92621Y-43942D01*
X92621Y-43757D01*
X92321Y-43571D02*
X92321Y-43542D01*
X92335Y-43514D01*
X92350Y-43500D01*
X92378Y-43485D01*
X92435Y-43471D01*
X92507Y-43471D01*
X92564Y-43485D01*
X92592Y-43500D01*
X92607Y-43514D01*
X92621Y-43542D01*
X92621Y-43571D01*
X92607Y-43600D01*
X92592Y-43614D01*
X92564Y-43628D01*
X92507Y-43642D01*
X92435Y-43642D01*
X92378Y-43628D01*
X92350Y-43614D01*
X92335Y-43600D01*
X92321Y-43571D01*
X92621Y-43171D02*
X92478Y-43271D01*
X92621Y-43342D02*
X92321Y-43342D01*
X92321Y-43228D01*
X92335Y-43200D01*
X92350Y-43185D01*
X92378Y-43171D01*
X92421Y-43171D01*
X92450Y-43185D01*
X92464Y-43200D01*
X92478Y-43228D01*
X92478Y-43342D01*
X71871Y-45000D02*
X71728Y-45100D01*
X71871Y-45171D02*
X71571Y-45171D01*
X71571Y-45057D01*
X71585Y-45028D01*
X71600Y-45014D01*
X71628Y-45000D01*
X71671Y-45000D01*
X71700Y-45014D01*
X71714Y-45028D01*
X71728Y-45057D01*
X71728Y-45171D01*
X71871Y-44857D02*
X71871Y-44800D01*
X71857Y-44771D01*
X71842Y-44757D01*
X71800Y-44728D01*
X71742Y-44714D01*
X71628Y-44714D01*
X71600Y-44728D01*
X71585Y-44742D01*
X71571Y-44771D01*
X71571Y-44828D01*
X71585Y-44857D01*
X71600Y-44871D01*
X71628Y-44885D01*
X71700Y-44885D01*
X71728Y-44871D01*
X71742Y-44857D01*
X71757Y-44828D01*
X71757Y-44771D01*
X71742Y-44742D01*
X71728Y-44728D01*
X71700Y-44714D01*
X71871Y-46728D02*
X71871Y-46899D01*
X71871Y-46814D02*
X71571Y-46814D01*
X71614Y-46842D01*
X71642Y-46871D01*
X71657Y-46899D01*
X71571Y-46542D02*
X71571Y-46514D01*
X71585Y-46485D01*
X71600Y-46471D01*
X71628Y-46457D01*
X71685Y-46442D01*
X71757Y-46442D01*
X71814Y-46457D01*
X71842Y-46471D01*
X71857Y-46485D01*
X71871Y-46514D01*
X71871Y-46542D01*
X71857Y-46571D01*
X71842Y-46585D01*
X71814Y-46599D01*
X71757Y-46614D01*
X71685Y-46614D01*
X71628Y-46599D01*
X71600Y-46585D01*
X71585Y-46571D01*
X71571Y-46542D01*
X71871Y-46314D02*
X71571Y-46314D01*
X71757Y-46285D02*
X71871Y-46200D01*
X71671Y-46200D02*
X71785Y-46314D01*
X79750Y-46621D02*
X79650Y-46478D01*
X79578Y-46621D02*
X79578Y-46321D01*
X79692Y-46321D01*
X79721Y-46335D01*
X79735Y-46350D01*
X79750Y-46378D01*
X79750Y-46421D01*
X79735Y-46450D01*
X79721Y-46464D01*
X79692Y-46478D01*
X79578Y-46478D01*
X79921Y-46450D02*
X79892Y-46435D01*
X79878Y-46421D01*
X79864Y-46392D01*
X79864Y-46378D01*
X79878Y-46350D01*
X79892Y-46335D01*
X79921Y-46321D01*
X79978Y-46321D01*
X80007Y-46335D01*
X80021Y-46350D01*
X80035Y-46378D01*
X80035Y-46392D01*
X80021Y-46421D01*
X80007Y-46435D01*
X79978Y-46450D01*
X79921Y-46450D01*
X79892Y-46464D01*
X79878Y-46478D01*
X79864Y-46507D01*
X79864Y-46564D01*
X79878Y-46592D01*
X79892Y-46607D01*
X79921Y-46621D01*
X79978Y-46621D01*
X80007Y-46607D01*
X80021Y-46592D01*
X80035Y-46564D01*
X80035Y-46507D01*
X80021Y-46478D01*
X80007Y-46464D01*
X79978Y-46450D01*
X78114Y-46621D02*
X77942Y-46621D01*
X78028Y-46621D02*
X78028Y-46321D01*
X78000Y-46364D01*
X77971Y-46392D01*
X77942Y-46407D01*
X78242Y-46621D02*
X78242Y-46321D01*
X78342Y-46535D01*
X78442Y-46321D01*
X78442Y-46621D01*
X78150Y-47621D02*
X78050Y-47478D01*
X77978Y-47621D02*
X77978Y-47321D01*
X78092Y-47321D01*
X78121Y-47335D01*
X78135Y-47350D01*
X78150Y-47378D01*
X78150Y-47421D01*
X78135Y-47450D01*
X78121Y-47464D01*
X78092Y-47478D01*
X77978Y-47478D01*
X78250Y-47321D02*
X78450Y-47321D01*
X78321Y-47621D01*
X79764Y-47621D02*
X79592Y-47621D01*
X79678Y-47621D02*
X79678Y-47321D01*
X79650Y-47364D01*
X79621Y-47392D01*
X79592Y-47407D01*
X79892Y-47621D02*
X79892Y-47321D01*
X79921Y-47507D02*
X80007Y-47621D01*
X80007Y-47421D02*
X79892Y-47535D01*
X86371Y-40642D02*
X86228Y-40742D01*
X86371Y-40814D02*
X86071Y-40814D01*
X86071Y-40700D01*
X86085Y-40671D01*
X86100Y-40657D01*
X86128Y-40642D01*
X86171Y-40642D01*
X86200Y-40657D01*
X86214Y-40671D01*
X86228Y-40700D01*
X86228Y-40814D01*
X86371Y-40357D02*
X86371Y-40528D01*
X86371Y-40442D02*
X86071Y-40442D01*
X86114Y-40471D01*
X86142Y-40500D01*
X86157Y-40528D01*
X86071Y-40257D02*
X86071Y-40057D01*
X86371Y-40185D01*
X86371Y-42228D02*
X86371Y-42399D01*
X86371Y-42314D02*
X86071Y-42314D01*
X86114Y-42342D01*
X86142Y-42371D01*
X86157Y-42399D01*
X86071Y-42042D02*
X86071Y-42014D01*
X86085Y-41985D01*
X86100Y-41971D01*
X86128Y-41957D01*
X86185Y-41942D01*
X86257Y-41942D01*
X86314Y-41957D01*
X86342Y-41971D01*
X86357Y-41985D01*
X86371Y-42014D01*
X86371Y-42042D01*
X86357Y-42071D01*
X86342Y-42085D01*
X86314Y-42099D01*
X86257Y-42114D01*
X86185Y-42114D01*
X86128Y-42099D01*
X86100Y-42085D01*
X86085Y-42071D01*
X86071Y-42042D01*
X86371Y-41814D02*
X86071Y-41814D01*
X86257Y-41785D02*
X86371Y-41700D01*
X86171Y-41700D02*
X86285Y-41814D01*
X87207Y-35121D02*
X87207Y-34821D01*
X87521Y-35092D02*
X87507Y-35107D01*
X87464Y-35121D01*
X87435Y-35121D01*
X87392Y-35107D01*
X87364Y-35078D01*
X87350Y-35050D01*
X87335Y-34992D01*
X87335Y-34950D01*
X87350Y-34892D01*
X87364Y-34864D01*
X87392Y-34835D01*
X87435Y-34821D01*
X87464Y-34821D01*
X87507Y-34835D01*
X87521Y-34850D01*
X87621Y-34821D02*
X87807Y-34821D01*
X87707Y-34935D01*
X87750Y-34935D01*
X87778Y-34950D01*
X87792Y-34964D01*
X87807Y-34992D01*
X87807Y-35064D01*
X87792Y-35092D01*
X87778Y-35107D01*
X87750Y-35121D01*
X87664Y-35121D01*
X87635Y-35107D01*
X87621Y-35092D01*
X87621Y-37549D02*
X87321Y-37549D01*
X87535Y-37449D01*
X87321Y-37349D01*
X87621Y-37349D01*
X87535Y-37221D02*
X87535Y-37078D01*
X87621Y-37250D02*
X87321Y-37150D01*
X87621Y-37050D01*
X87321Y-36978D02*
X87621Y-36778D01*
X87321Y-36778D02*
X87621Y-36978D01*
X87421Y-36535D02*
X87621Y-36535D01*
X87307Y-36607D02*
X87521Y-36678D01*
X87521Y-36492D01*
X87350Y-36392D02*
X87335Y-36378D01*
X87321Y-36350D01*
X87321Y-36278D01*
X87335Y-36250D01*
X87350Y-36235D01*
X87378Y-36221D01*
X87407Y-36221D01*
X87450Y-36235D01*
X87621Y-36407D01*
X87621Y-36221D01*
X87321Y-36035D02*
X87321Y-36007D01*
X87335Y-35978D01*
X87350Y-35964D01*
X87378Y-35950D01*
X87435Y-35935D01*
X87507Y-35935D01*
X87564Y-35950D01*
X87592Y-35964D01*
X87607Y-35978D01*
X87621Y-36007D01*
X87621Y-36035D01*
X87607Y-36064D01*
X87592Y-36078D01*
X87564Y-36092D01*
X87507Y-36107D01*
X87435Y-36107D01*
X87378Y-36092D01*
X87350Y-36078D01*
X87335Y-36064D01*
X87321Y-36035D01*
X68371Y-45542D02*
X68071Y-45542D01*
X68342Y-45228D02*
X68357Y-45242D01*
X68371Y-45285D01*
X68371Y-45314D01*
X68357Y-45357D01*
X68328Y-45385D01*
X68300Y-45399D01*
X68242Y-45414D01*
X68200Y-45414D01*
X68142Y-45399D01*
X68114Y-45385D01*
X68085Y-45357D01*
X68071Y-45314D01*
X68071Y-45285D01*
X68085Y-45242D01*
X68100Y-45228D01*
X68371Y-44942D02*
X68371Y-45114D01*
X68371Y-45028D02*
X68071Y-45028D01*
X68114Y-45057D01*
X68142Y-45085D01*
X68157Y-45114D01*
X65907Y-45371D02*
X65764Y-45371D01*
X65764Y-45071D01*
X65964Y-45071D02*
X66135Y-45071D01*
X66050Y-45371D02*
X66050Y-45071D01*
X66392Y-45371D02*
X66221Y-45371D01*
X66307Y-45371D02*
X66307Y-45071D01*
X66278Y-45114D01*
X66250Y-45142D01*
X66221Y-45157D01*
X66578Y-45071D02*
X66607Y-45071D01*
X66635Y-45085D01*
X66650Y-45100D01*
X66664Y-45128D01*
X66678Y-45185D01*
X66678Y-45257D01*
X66664Y-45314D01*
X66650Y-45342D01*
X66635Y-45357D01*
X66607Y-45371D01*
X66578Y-45371D01*
X66550Y-45357D01*
X66535Y-45342D01*
X66521Y-45314D01*
X66507Y-45257D01*
X66507Y-45185D01*
X66521Y-45128D01*
X66535Y-45100D01*
X66550Y-45085D01*
X66578Y-45071D01*
X66964Y-45371D02*
X66792Y-45371D01*
X66878Y-45371D02*
X66878Y-45071D01*
X66850Y-45114D01*
X66821Y-45142D01*
X66792Y-45157D01*
X67064Y-45071D02*
X67249Y-45071D01*
X67149Y-45185D01*
X67192Y-45185D01*
X67221Y-45200D01*
X67235Y-45214D01*
X67249Y-45242D01*
X67249Y-45314D01*
X67235Y-45342D01*
X67221Y-45357D01*
X67192Y-45371D01*
X67107Y-45371D01*
X67078Y-45357D01*
X67064Y-45342D01*
G54D14*
X81315Y-33351D02*
X81315Y-33101D01*
X81375Y-33101D01*
X81410Y-33113D01*
X81434Y-33136D01*
X81446Y-33160D01*
X81458Y-33208D01*
X81458Y-33244D01*
X81446Y-33291D01*
X81434Y-33315D01*
X81410Y-33339D01*
X81375Y-33351D01*
X81315Y-33351D01*
X81696Y-33351D02*
X81553Y-33351D01*
X81625Y-33351D02*
X81625Y-33101D01*
X81601Y-33136D01*
X81577Y-33160D01*
X81553Y-33172D01*
X81964Y-32351D02*
X81821Y-32351D01*
X81892Y-32351D02*
X81892Y-32101D01*
X81869Y-32136D01*
X81845Y-32160D01*
X81821Y-32172D01*
X82071Y-32351D02*
X82071Y-32101D01*
X82214Y-32351D01*
X82214Y-32101D01*
X82440Y-32184D02*
X82440Y-32351D01*
X82380Y-32089D02*
X82321Y-32267D01*
X82476Y-32267D01*
X82702Y-32351D02*
X82559Y-32351D01*
X82630Y-32351D02*
X82630Y-32101D01*
X82607Y-32136D01*
X82583Y-32160D01*
X82559Y-32172D01*
X82916Y-32184D02*
X82916Y-32351D01*
X82857Y-32089D02*
X82797Y-32267D01*
X82952Y-32267D01*
X83083Y-32208D02*
X83059Y-32196D01*
X83047Y-32184D01*
X83035Y-32160D01*
X83035Y-32148D01*
X83047Y-32125D01*
X83059Y-32113D01*
X83083Y-32101D01*
X83130Y-32101D01*
X83154Y-32113D01*
X83166Y-32125D01*
X83178Y-32148D01*
X83178Y-32160D01*
X83166Y-32184D01*
X83154Y-32196D01*
X83130Y-32208D01*
X83083Y-32208D01*
X83059Y-32220D01*
X83047Y-32232D01*
X83035Y-32255D01*
X83035Y-32303D01*
X83047Y-32327D01*
X83059Y-32339D01*
X83083Y-32351D01*
X83130Y-32351D01*
X83154Y-32339D01*
X83166Y-32327D01*
X83178Y-32303D01*
X83178Y-32255D01*
X83166Y-32232D01*
X83154Y-32220D01*
X83130Y-32208D01*
X85351Y-37684D02*
X85101Y-37684D01*
X85101Y-37625D01*
X85113Y-37589D01*
X85136Y-37565D01*
X85160Y-37553D01*
X85208Y-37541D01*
X85244Y-37541D01*
X85291Y-37553D01*
X85315Y-37565D01*
X85339Y-37589D01*
X85351Y-37625D01*
X85351Y-37684D01*
X85101Y-37458D02*
X85101Y-37303D01*
X85196Y-37386D01*
X85196Y-37351D01*
X85208Y-37327D01*
X85220Y-37315D01*
X85244Y-37303D01*
X85303Y-37303D01*
X85327Y-37315D01*
X85339Y-37327D01*
X85351Y-37351D01*
X85351Y-37422D01*
X85339Y-37446D01*
X85327Y-37458D01*
X84601Y-36285D02*
X84601Y-36428D01*
X84601Y-36357D02*
X84351Y-36357D01*
X84386Y-36380D01*
X84410Y-36404D01*
X84422Y-36428D01*
X84601Y-36178D02*
X84351Y-36178D01*
X84601Y-36035D01*
X84351Y-36035D01*
X84434Y-35809D02*
X84601Y-35809D01*
X84339Y-35869D02*
X84517Y-35928D01*
X84517Y-35773D01*
X84601Y-35547D02*
X84601Y-35690D01*
X84601Y-35619D02*
X84351Y-35619D01*
X84386Y-35642D01*
X84410Y-35666D01*
X84422Y-35690D01*
X84434Y-35333D02*
X84601Y-35333D01*
X84339Y-35392D02*
X84517Y-35452D01*
X84517Y-35297D01*
X84458Y-35166D02*
X84446Y-35190D01*
X84434Y-35202D01*
X84410Y-35214D01*
X84398Y-35214D01*
X84375Y-35202D01*
X84363Y-35190D01*
X84351Y-35166D01*
X84351Y-35119D01*
X84363Y-35095D01*
X84375Y-35083D01*
X84398Y-35071D01*
X84410Y-35071D01*
X84434Y-35083D01*
X84446Y-35095D01*
X84458Y-35119D01*
X84458Y-35166D01*
X84470Y-35190D01*
X84482Y-35202D01*
X84505Y-35214D01*
X84553Y-35214D01*
X84577Y-35202D01*
X84589Y-35190D01*
X84601Y-35166D01*
X84601Y-35119D01*
X84589Y-35095D01*
X84577Y-35083D01*
X84553Y-35071D01*
X84505Y-35071D01*
X84482Y-35083D01*
X84470Y-35095D01*
X84458Y-35119D01*
X66565Y-42601D02*
X66565Y-42351D01*
X66625Y-42351D01*
X66660Y-42363D01*
X66684Y-42386D01*
X66696Y-42410D01*
X66708Y-42458D01*
X66708Y-42494D01*
X66696Y-42541D01*
X66684Y-42565D01*
X66660Y-42589D01*
X66625Y-42601D01*
X66565Y-42601D01*
X66803Y-42375D02*
X66815Y-42363D01*
X66839Y-42351D01*
X66898Y-42351D01*
X66922Y-42363D01*
X66934Y-42375D01*
X66946Y-42398D01*
X66946Y-42422D01*
X66934Y-42458D01*
X66791Y-42601D01*
X66946Y-42601D01*
X64464Y-41851D02*
X64321Y-41851D01*
X64392Y-41851D02*
X64392Y-41601D01*
X64369Y-41636D01*
X64345Y-41660D01*
X64321Y-41672D01*
X64571Y-41851D02*
X64571Y-41601D01*
X64714Y-41851D01*
X64714Y-41601D01*
X64940Y-41684D02*
X64940Y-41851D01*
X64880Y-41589D02*
X64821Y-41767D01*
X64976Y-41767D01*
X65202Y-41851D02*
X65059Y-41851D01*
X65130Y-41851D02*
X65130Y-41601D01*
X65107Y-41636D01*
X65083Y-41660D01*
X65059Y-41672D01*
X65416Y-41684D02*
X65416Y-41851D01*
X65357Y-41589D02*
X65297Y-41767D01*
X65452Y-41767D01*
X65583Y-41708D02*
X65559Y-41696D01*
X65547Y-41684D01*
X65535Y-41660D01*
X65535Y-41648D01*
X65547Y-41625D01*
X65559Y-41613D01*
X65583Y-41601D01*
X65630Y-41601D01*
X65654Y-41613D01*
X65666Y-41625D01*
X65678Y-41648D01*
X65678Y-41660D01*
X65666Y-41684D01*
X65654Y-41696D01*
X65630Y-41708D01*
X65583Y-41708D01*
X65559Y-41720D01*
X65547Y-41732D01*
X65535Y-41755D01*
X65535Y-41803D01*
X65547Y-41827D01*
X65559Y-41839D01*
X65583Y-41851D01*
X65630Y-41851D01*
X65654Y-41839D01*
X65666Y-41827D01*
X65678Y-41803D01*
X65678Y-41755D01*
X65666Y-41732D01*
X65654Y-41720D01*
X65630Y-41708D01*
G54D11*
X63950Y-40592D02*
X63935Y-40607D01*
X63892Y-40621D01*
X63864Y-40621D01*
X63821Y-40607D01*
X63792Y-40578D01*
X63778Y-40550D01*
X63764Y-40492D01*
X63764Y-40450D01*
X63778Y-40392D01*
X63792Y-40364D01*
X63821Y-40335D01*
X63864Y-40321D01*
X63892Y-40321D01*
X63935Y-40335D01*
X63950Y-40350D01*
X64207Y-40421D02*
X64207Y-40621D01*
X64135Y-40307D02*
X64064Y-40521D01*
X64250Y-40521D01*
X65507Y-40321D02*
X65535Y-40321D01*
X65564Y-40335D01*
X65578Y-40350D01*
X65592Y-40378D01*
X65607Y-40435D01*
X65607Y-40507D01*
X65592Y-40564D01*
X65578Y-40592D01*
X65564Y-40607D01*
X65535Y-40621D01*
X65507Y-40621D01*
X65478Y-40607D01*
X65464Y-40592D01*
X65450Y-40564D01*
X65435Y-40507D01*
X65435Y-40435D01*
X65450Y-40378D01*
X65464Y-40350D01*
X65478Y-40335D01*
X65507Y-40321D01*
X65735Y-40592D02*
X65750Y-40607D01*
X65735Y-40621D01*
X65721Y-40607D01*
X65735Y-40592D01*
X65735Y-40621D01*
X66035Y-40621D02*
X65864Y-40621D01*
X65950Y-40621D02*
X65950Y-40321D01*
X65921Y-40364D01*
X65892Y-40392D01*
X65864Y-40407D01*
X66292Y-40421D02*
X66292Y-40621D01*
X66164Y-40421D02*
X66164Y-40578D01*
X66178Y-40607D01*
X66207Y-40621D01*
X66250Y-40621D01*
X66278Y-40607D01*
X66292Y-40592D01*
X66535Y-40464D02*
X66435Y-40464D01*
X66435Y-40621D02*
X66435Y-40321D01*
X66578Y-40321D01*
X76450Y-44342D02*
X76435Y-44357D01*
X76392Y-44371D01*
X76364Y-44371D01*
X76321Y-44357D01*
X76292Y-44328D01*
X76278Y-44300D01*
X76264Y-44242D01*
X76264Y-44200D01*
X76278Y-44142D01*
X76292Y-44114D01*
X76321Y-44085D01*
X76364Y-44071D01*
X76392Y-44071D01*
X76435Y-44085D01*
X76450Y-44100D01*
X76707Y-44071D02*
X76650Y-44071D01*
X76621Y-44085D01*
X76607Y-44100D01*
X76578Y-44142D01*
X76564Y-44200D01*
X76564Y-44314D01*
X76578Y-44342D01*
X76592Y-44357D01*
X76621Y-44371D01*
X76678Y-44371D01*
X76707Y-44357D01*
X76721Y-44342D01*
X76735Y-44314D01*
X76735Y-44242D01*
X76721Y-44214D01*
X76707Y-44200D01*
X76678Y-44185D01*
X76621Y-44185D01*
X76592Y-44200D01*
X76578Y-44214D01*
X76564Y-44242D01*
X74007Y-44071D02*
X74035Y-44071D01*
X74064Y-44085D01*
X74078Y-44100D01*
X74092Y-44128D01*
X74107Y-44185D01*
X74107Y-44257D01*
X74092Y-44314D01*
X74078Y-44342D01*
X74064Y-44357D01*
X74035Y-44371D01*
X74007Y-44371D01*
X73978Y-44357D01*
X73964Y-44342D01*
X73950Y-44314D01*
X73935Y-44257D01*
X73935Y-44185D01*
X73950Y-44128D01*
X73964Y-44100D01*
X73978Y-44085D01*
X74007Y-44071D01*
X74235Y-44342D02*
X74250Y-44357D01*
X74235Y-44371D01*
X74221Y-44357D01*
X74235Y-44342D01*
X74235Y-44371D01*
X74535Y-44371D02*
X74364Y-44371D01*
X74450Y-44371D02*
X74450Y-44071D01*
X74421Y-44114D01*
X74392Y-44142D01*
X74364Y-44157D01*
X74792Y-44171D02*
X74792Y-44371D01*
X74664Y-44171D02*
X74664Y-44328D01*
X74678Y-44357D01*
X74707Y-44371D01*
X74750Y-44371D01*
X74778Y-44357D01*
X74792Y-44342D01*
X75035Y-44214D02*
X74935Y-44214D01*
X74935Y-44371D02*
X74935Y-44071D01*
X75078Y-44071D01*
X64342Y-46050D02*
X64357Y-46064D01*
X64371Y-46107D01*
X64371Y-46135D01*
X64357Y-46178D01*
X64328Y-46207D01*
X64300Y-46221D01*
X64242Y-46235D01*
X64200Y-46235D01*
X64142Y-46221D01*
X64114Y-46207D01*
X64085Y-46178D01*
X64071Y-46135D01*
X64071Y-46107D01*
X64085Y-46064D01*
X64100Y-46050D01*
X64071Y-45950D02*
X64071Y-45764D01*
X64185Y-45864D01*
X64185Y-45821D01*
X64200Y-45792D01*
X64214Y-45778D01*
X64242Y-45764D01*
X64314Y-45764D01*
X64342Y-45778D01*
X64357Y-45792D01*
X64371Y-45821D01*
X64371Y-45907D01*
X64357Y-45935D01*
X64342Y-45950D01*
X64100Y-44492D02*
X64085Y-44478D01*
X64071Y-44450D01*
X64071Y-44378D01*
X64085Y-44350D01*
X64100Y-44335D01*
X64128Y-44321D01*
X64157Y-44321D01*
X64200Y-44335D01*
X64371Y-44507D01*
X64371Y-44321D01*
X64100Y-44207D02*
X64085Y-44192D01*
X64071Y-44164D01*
X64071Y-44092D01*
X64085Y-44064D01*
X64100Y-44050D01*
X64128Y-44035D01*
X64157Y-44035D01*
X64200Y-44050D01*
X64371Y-44221D01*
X64371Y-44035D01*
X64171Y-43907D02*
X64371Y-43907D01*
X64200Y-43907D02*
X64185Y-43892D01*
X64171Y-43864D01*
X64171Y-43821D01*
X64185Y-43792D01*
X64214Y-43778D01*
X64371Y-43778D01*
X64214Y-43535D02*
X64214Y-43635D01*
X64371Y-43635D02*
X64071Y-43635D01*
X64071Y-43492D01*
X80450Y-31342D02*
X80435Y-31357D01*
X80392Y-31371D01*
X80364Y-31371D01*
X80321Y-31357D01*
X80292Y-31328D01*
X80278Y-31300D01*
X80264Y-31242D01*
X80264Y-31200D01*
X80278Y-31142D01*
X80292Y-31114D01*
X80321Y-31085D01*
X80364Y-31071D01*
X80392Y-31071D01*
X80435Y-31085D01*
X80450Y-31100D01*
X80592Y-31371D02*
X80650Y-31371D01*
X80678Y-31357D01*
X80692Y-31342D01*
X80721Y-31300D01*
X80735Y-31242D01*
X80735Y-31128D01*
X80721Y-31100D01*
X80707Y-31085D01*
X80678Y-31071D01*
X80621Y-31071D01*
X80592Y-31085D01*
X80578Y-31100D01*
X80564Y-31128D01*
X80564Y-31200D01*
X80578Y-31228D01*
X80592Y-31242D01*
X80621Y-31257D01*
X80678Y-31257D01*
X80707Y-31242D01*
X80721Y-31228D01*
X80735Y-31200D01*
X82035Y-31371D02*
X81864Y-31371D01*
X81950Y-31371D02*
X81950Y-31071D01*
X81921Y-31114D01*
X81892Y-31142D01*
X81864Y-31157D01*
X82221Y-31071D02*
X82250Y-31071D01*
X82278Y-31085D01*
X82292Y-31100D01*
X82307Y-31128D01*
X82321Y-31185D01*
X82321Y-31257D01*
X82307Y-31314D01*
X82292Y-31342D01*
X82278Y-31357D01*
X82250Y-31371D01*
X82221Y-31371D01*
X82192Y-31357D01*
X82178Y-31342D01*
X82164Y-31314D01*
X82150Y-31257D01*
X82150Y-31185D01*
X82164Y-31128D01*
X82178Y-31100D01*
X82192Y-31085D01*
X82221Y-31071D01*
X82507Y-31071D02*
X82535Y-31071D01*
X82564Y-31085D01*
X82578Y-31100D01*
X82592Y-31128D01*
X82607Y-31185D01*
X82607Y-31257D01*
X82592Y-31314D01*
X82578Y-31342D01*
X82564Y-31357D01*
X82535Y-31371D01*
X82507Y-31371D01*
X82478Y-31357D01*
X82464Y-31342D01*
X82450Y-31314D01*
X82435Y-31257D01*
X82435Y-31185D01*
X82450Y-31128D01*
X82464Y-31100D01*
X82478Y-31085D01*
X82507Y-31071D01*
X82735Y-31171D02*
X82735Y-31371D01*
X82735Y-31200D02*
X82749Y-31185D01*
X82778Y-31171D01*
X82821Y-31171D01*
X82849Y-31185D01*
X82864Y-31214D01*
X82864Y-31371D01*
X83107Y-31214D02*
X83007Y-31214D01*
X83007Y-31371D02*
X83007Y-31071D01*
X83150Y-31071D01*
X70842Y-38800D02*
X70857Y-38814D01*
X70871Y-38857D01*
X70871Y-38885D01*
X70857Y-38928D01*
X70828Y-38957D01*
X70800Y-38971D01*
X70742Y-38985D01*
X70700Y-38985D01*
X70642Y-38971D01*
X70614Y-38957D01*
X70585Y-38928D01*
X70571Y-38885D01*
X70571Y-38857D01*
X70585Y-38814D01*
X70600Y-38800D01*
X70571Y-38528D02*
X70571Y-38671D01*
X70714Y-38685D01*
X70700Y-38671D01*
X70685Y-38642D01*
X70685Y-38571D01*
X70700Y-38542D01*
X70714Y-38528D01*
X70742Y-38514D01*
X70814Y-38514D01*
X70842Y-38528D01*
X70857Y-38542D01*
X70871Y-38571D01*
X70871Y-38642D01*
X70857Y-38671D01*
X70842Y-38685D01*
X70571Y-37242D02*
X70571Y-37214D01*
X70585Y-37185D01*
X70600Y-37171D01*
X70628Y-37157D01*
X70685Y-37142D01*
X70757Y-37142D01*
X70814Y-37157D01*
X70842Y-37171D01*
X70857Y-37185D01*
X70871Y-37214D01*
X70871Y-37242D01*
X70857Y-37271D01*
X70842Y-37285D01*
X70814Y-37299D01*
X70757Y-37314D01*
X70685Y-37314D01*
X70628Y-37299D01*
X70600Y-37285D01*
X70585Y-37271D01*
X70571Y-37242D01*
X70842Y-37014D02*
X70857Y-37000D01*
X70871Y-37014D01*
X70857Y-37028D01*
X70842Y-37014D01*
X70871Y-37014D01*
X70871Y-36714D02*
X70871Y-36885D01*
X70871Y-36800D02*
X70571Y-36800D01*
X70614Y-36828D01*
X70642Y-36857D01*
X70657Y-36885D01*
X70671Y-36457D02*
X70871Y-36457D01*
X70671Y-36585D02*
X70828Y-36585D01*
X70857Y-36571D01*
X70871Y-36542D01*
X70871Y-36500D01*
X70857Y-36471D01*
X70842Y-36457D01*
X70714Y-36214D02*
X70714Y-36314D01*
X70871Y-36314D02*
X70571Y-36314D01*
X70571Y-36171D01*
X85450Y-32342D02*
X85435Y-32357D01*
X85392Y-32371D01*
X85364Y-32371D01*
X85321Y-32357D01*
X85292Y-32328D01*
X85278Y-32300D01*
X85264Y-32242D01*
X85264Y-32200D01*
X85278Y-32142D01*
X85292Y-32114D01*
X85321Y-32085D01*
X85364Y-32071D01*
X85392Y-32071D01*
X85435Y-32085D01*
X85450Y-32100D01*
X85550Y-32071D02*
X85750Y-32071D01*
X85621Y-32371D01*
X87007Y-33071D02*
X87035Y-33071D01*
X87064Y-33085D01*
X87078Y-33100D01*
X87092Y-33128D01*
X87107Y-33185D01*
X87107Y-33257D01*
X87092Y-33314D01*
X87078Y-33342D01*
X87064Y-33357D01*
X87035Y-33371D01*
X87007Y-33371D01*
X86978Y-33357D01*
X86964Y-33342D01*
X86950Y-33314D01*
X86935Y-33257D01*
X86935Y-33185D01*
X86950Y-33128D01*
X86964Y-33100D01*
X86978Y-33085D01*
X87007Y-33071D01*
X87235Y-33342D02*
X87250Y-33357D01*
X87235Y-33371D01*
X87221Y-33357D01*
X87235Y-33342D01*
X87235Y-33371D01*
X87535Y-33371D02*
X87364Y-33371D01*
X87450Y-33371D02*
X87450Y-33071D01*
X87421Y-33114D01*
X87392Y-33142D01*
X87364Y-33157D01*
X87792Y-33171D02*
X87792Y-33371D01*
X87664Y-33171D02*
X87664Y-33328D01*
X87678Y-33357D01*
X87707Y-33371D01*
X87750Y-33371D01*
X87778Y-33357D01*
X87792Y-33342D01*
X88035Y-33214D02*
X87935Y-33214D01*
X87935Y-33371D02*
X87935Y-33071D01*
X88078Y-33071D01*
X85450Y-33342D02*
X85435Y-33357D01*
X85392Y-33371D01*
X85364Y-33371D01*
X85321Y-33357D01*
X85292Y-33328D01*
X85278Y-33300D01*
X85264Y-33242D01*
X85264Y-33200D01*
X85278Y-33142D01*
X85292Y-33114D01*
X85321Y-33085D01*
X85364Y-33071D01*
X85392Y-33071D01*
X85435Y-33085D01*
X85450Y-33100D01*
X85621Y-33200D02*
X85592Y-33185D01*
X85578Y-33171D01*
X85564Y-33142D01*
X85564Y-33128D01*
X85578Y-33100D01*
X85592Y-33085D01*
X85621Y-33071D01*
X85678Y-33071D01*
X85707Y-33085D01*
X85721Y-33100D01*
X85735Y-33128D01*
X85735Y-33142D01*
X85721Y-33171D01*
X85707Y-33185D01*
X85678Y-33200D01*
X85621Y-33200D01*
X85592Y-33214D01*
X85578Y-33228D01*
X85564Y-33257D01*
X85564Y-33314D01*
X85578Y-33342D01*
X85592Y-33357D01*
X85621Y-33371D01*
X85678Y-33371D01*
X85707Y-33357D01*
X85721Y-33342D01*
X85735Y-33314D01*
X85735Y-33257D01*
X85721Y-33228D01*
X85707Y-33214D01*
X85678Y-33200D01*
X87007Y-32071D02*
X87035Y-32071D01*
X87064Y-32085D01*
X87078Y-32100D01*
X87092Y-32128D01*
X87107Y-32185D01*
X87107Y-32257D01*
X87092Y-32314D01*
X87078Y-32342D01*
X87064Y-32357D01*
X87035Y-32371D01*
X87007Y-32371D01*
X86978Y-32357D01*
X86964Y-32342D01*
X86950Y-32314D01*
X86935Y-32257D01*
X86935Y-32185D01*
X86950Y-32128D01*
X86964Y-32100D01*
X86978Y-32085D01*
X87007Y-32071D01*
X87235Y-32342D02*
X87250Y-32357D01*
X87235Y-32371D01*
X87221Y-32357D01*
X87235Y-32342D01*
X87235Y-32371D01*
X87535Y-32371D02*
X87364Y-32371D01*
X87450Y-32371D02*
X87450Y-32071D01*
X87421Y-32114D01*
X87392Y-32142D01*
X87364Y-32157D01*
X87792Y-32171D02*
X87792Y-32371D01*
X87664Y-32171D02*
X87664Y-32328D01*
X87678Y-32357D01*
X87707Y-32371D01*
X87750Y-32371D01*
X87778Y-32357D01*
X87792Y-32342D01*
X88035Y-32214D02*
X87935Y-32214D01*
X87935Y-32371D02*
X87935Y-32071D01*
X88078Y-32071D01*
X88807Y-40342D02*
X88792Y-40357D01*
X88750Y-40371D01*
X88721Y-40371D01*
X88678Y-40357D01*
X88650Y-40328D01*
X88635Y-40300D01*
X88621Y-40242D01*
X88621Y-40200D01*
X88635Y-40142D01*
X88650Y-40114D01*
X88678Y-40085D01*
X88721Y-40071D01*
X88750Y-40071D01*
X88792Y-40085D01*
X88807Y-40100D01*
X89092Y-40371D02*
X88921Y-40371D01*
X89007Y-40371D02*
X89007Y-40071D01*
X88978Y-40114D01*
X88950Y-40142D01*
X88921Y-40157D01*
X89278Y-40071D02*
X89307Y-40071D01*
X89335Y-40085D01*
X89350Y-40100D01*
X89364Y-40128D01*
X89378Y-40185D01*
X89378Y-40257D01*
X89364Y-40314D01*
X89350Y-40342D01*
X89335Y-40357D01*
X89307Y-40371D01*
X89278Y-40371D01*
X89250Y-40357D01*
X89235Y-40342D01*
X89221Y-40314D01*
X89207Y-40257D01*
X89207Y-40185D01*
X89221Y-40128D01*
X89235Y-40100D01*
X89250Y-40085D01*
X89278Y-40071D01*
X87678Y-39371D02*
X87507Y-39371D01*
X87592Y-39371D02*
X87592Y-39071D01*
X87564Y-39114D01*
X87535Y-39142D01*
X87507Y-39157D01*
X87864Y-39071D02*
X87892Y-39071D01*
X87921Y-39085D01*
X87935Y-39100D01*
X87950Y-39128D01*
X87964Y-39185D01*
X87964Y-39257D01*
X87950Y-39314D01*
X87935Y-39342D01*
X87921Y-39357D01*
X87892Y-39371D01*
X87864Y-39371D01*
X87835Y-39357D01*
X87821Y-39342D01*
X87807Y-39314D01*
X87792Y-39257D01*
X87792Y-39185D01*
X87807Y-39128D01*
X87821Y-39100D01*
X87835Y-39085D01*
X87864Y-39071D01*
X88092Y-39171D02*
X88092Y-39371D01*
X88092Y-39200D02*
X88107Y-39185D01*
X88135Y-39171D01*
X88178Y-39171D01*
X88207Y-39185D01*
X88221Y-39214D01*
X88221Y-39371D01*
X88464Y-39214D02*
X88364Y-39214D01*
X88364Y-39371D02*
X88364Y-39071D01*
X88507Y-39071D01*
X77200Y-41592D02*
X77185Y-41607D01*
X77142Y-41621D01*
X77114Y-41621D01*
X77071Y-41607D01*
X77042Y-41578D01*
X77028Y-41550D01*
X77014Y-41492D01*
X77014Y-41450D01*
X77028Y-41392D01*
X77042Y-41364D01*
X77071Y-41335D01*
X77114Y-41321D01*
X77142Y-41321D01*
X77185Y-41335D01*
X77200Y-41350D01*
X77485Y-41621D02*
X77314Y-41621D01*
X77400Y-41621D02*
X77400Y-41321D01*
X77371Y-41364D01*
X77342Y-41392D01*
X77314Y-41407D01*
X78757Y-41321D02*
X78785Y-41321D01*
X78814Y-41335D01*
X78828Y-41350D01*
X78842Y-41378D01*
X78857Y-41435D01*
X78857Y-41507D01*
X78842Y-41564D01*
X78828Y-41592D01*
X78814Y-41607D01*
X78785Y-41621D01*
X78757Y-41621D01*
X78728Y-41607D01*
X78714Y-41592D01*
X78700Y-41564D01*
X78685Y-41507D01*
X78685Y-41435D01*
X78700Y-41378D01*
X78714Y-41350D01*
X78728Y-41335D01*
X78757Y-41321D01*
X78985Y-41592D02*
X79000Y-41607D01*
X78985Y-41621D01*
X78971Y-41607D01*
X78985Y-41592D01*
X78985Y-41621D01*
X79285Y-41621D02*
X79114Y-41621D01*
X79200Y-41621D02*
X79200Y-41321D01*
X79171Y-41364D01*
X79142Y-41392D01*
X79114Y-41407D01*
X79542Y-41421D02*
X79542Y-41621D01*
X79414Y-41421D02*
X79414Y-41578D01*
X79428Y-41607D01*
X79457Y-41621D01*
X79500Y-41621D01*
X79528Y-41607D01*
X79542Y-41592D01*
X79785Y-41464D02*
X79685Y-41464D01*
X79685Y-41621D02*
X79685Y-41321D01*
X79828Y-41321D01*
X75592Y-48800D02*
X75607Y-48814D01*
X75621Y-48857D01*
X75621Y-48885D01*
X75607Y-48928D01*
X75578Y-48957D01*
X75550Y-48971D01*
X75492Y-48985D01*
X75450Y-48985D01*
X75392Y-48971D01*
X75364Y-48957D01*
X75335Y-48928D01*
X75321Y-48885D01*
X75321Y-48857D01*
X75335Y-48814D01*
X75350Y-48800D01*
X75350Y-48685D02*
X75335Y-48671D01*
X75321Y-48642D01*
X75321Y-48571D01*
X75335Y-48542D01*
X75350Y-48528D01*
X75378Y-48514D01*
X75407Y-48514D01*
X75450Y-48528D01*
X75621Y-48700D01*
X75621Y-48514D01*
X75321Y-47242D02*
X75321Y-47214D01*
X75335Y-47185D01*
X75350Y-47171D01*
X75378Y-47157D01*
X75435Y-47142D01*
X75507Y-47142D01*
X75564Y-47157D01*
X75592Y-47171D01*
X75607Y-47185D01*
X75621Y-47214D01*
X75621Y-47242D01*
X75607Y-47271D01*
X75592Y-47285D01*
X75564Y-47299D01*
X75507Y-47314D01*
X75435Y-47314D01*
X75378Y-47299D01*
X75350Y-47285D01*
X75335Y-47271D01*
X75321Y-47242D01*
X75592Y-47014D02*
X75607Y-47000D01*
X75621Y-47014D01*
X75607Y-47028D01*
X75592Y-47014D01*
X75621Y-47014D01*
X75621Y-46714D02*
X75621Y-46885D01*
X75621Y-46800D02*
X75321Y-46800D01*
X75364Y-46828D01*
X75392Y-46857D01*
X75407Y-46885D01*
X75421Y-46457D02*
X75621Y-46457D01*
X75421Y-46585D02*
X75578Y-46585D01*
X75607Y-46571D01*
X75621Y-46542D01*
X75621Y-46500D01*
X75607Y-46471D01*
X75592Y-46457D01*
X75464Y-46214D02*
X75464Y-46314D01*
X75621Y-46314D02*
X75321Y-46314D01*
X75321Y-46171D01*
X70092Y-47692D02*
X70107Y-47707D01*
X70121Y-47750D01*
X70121Y-47778D01*
X70107Y-47821D01*
X70078Y-47850D01*
X70050Y-47864D01*
X69992Y-47878D01*
X69950Y-47878D01*
X69892Y-47864D01*
X69864Y-47850D01*
X69835Y-47821D01*
X69821Y-47778D01*
X69821Y-47750D01*
X69835Y-47707D01*
X69850Y-47692D01*
X70121Y-47407D02*
X70121Y-47578D01*
X70121Y-47492D02*
X69821Y-47492D01*
X69864Y-47521D01*
X69892Y-47550D01*
X69907Y-47578D01*
X70121Y-47121D02*
X70121Y-47292D01*
X70121Y-47207D02*
X69821Y-47207D01*
X69864Y-47235D01*
X69892Y-47264D01*
X69907Y-47292D01*
X69821Y-45742D02*
X69821Y-45714D01*
X69835Y-45685D01*
X69850Y-45671D01*
X69878Y-45657D01*
X69935Y-45642D01*
X70007Y-45642D01*
X70064Y-45657D01*
X70092Y-45671D01*
X70107Y-45685D01*
X70121Y-45714D01*
X70121Y-45742D01*
X70107Y-45771D01*
X70092Y-45785D01*
X70064Y-45799D01*
X70007Y-45814D01*
X69935Y-45814D01*
X69878Y-45799D01*
X69850Y-45785D01*
X69835Y-45771D01*
X69821Y-45742D01*
X70092Y-45514D02*
X70107Y-45500D01*
X70121Y-45514D01*
X70107Y-45528D01*
X70092Y-45514D01*
X70121Y-45514D01*
X70121Y-45214D02*
X70121Y-45385D01*
X70121Y-45300D02*
X69821Y-45300D01*
X69864Y-45328D01*
X69892Y-45357D01*
X69907Y-45385D01*
X69921Y-44957D02*
X70121Y-44957D01*
X69921Y-45085D02*
X70078Y-45085D01*
X70107Y-45071D01*
X70121Y-45042D01*
X70121Y-45000D01*
X70107Y-44971D01*
X70092Y-44957D01*
X69964Y-44714D02*
X69964Y-44814D01*
X70121Y-44814D02*
X69821Y-44814D01*
X69821Y-44671D01*
X90307Y-38121D02*
X90207Y-37978D01*
X90135Y-38121D02*
X90135Y-37821D01*
X90250Y-37821D01*
X90278Y-37835D01*
X90292Y-37850D01*
X90307Y-37878D01*
X90307Y-37921D01*
X90292Y-37950D01*
X90278Y-37964D01*
X90250Y-37978D01*
X90135Y-37978D01*
X90592Y-38121D02*
X90421Y-38121D01*
X90507Y-38121D02*
X90507Y-37821D01*
X90478Y-37864D01*
X90450Y-37892D01*
X90421Y-37907D01*
X90864Y-37821D02*
X90721Y-37821D01*
X90707Y-37964D01*
X90721Y-37950D01*
X90750Y-37935D01*
X90821Y-37935D01*
X90850Y-37950D01*
X90864Y-37964D01*
X90878Y-37992D01*
X90878Y-38064D01*
X90864Y-38092D01*
X90850Y-38107D01*
X90821Y-38121D01*
X90750Y-38121D01*
X90721Y-38107D01*
X90707Y-38092D01*
X92121Y-37850D02*
X92135Y-37835D01*
X92164Y-37821D01*
X92235Y-37821D01*
X92264Y-37835D01*
X92278Y-37850D01*
X92292Y-37878D01*
X92292Y-37907D01*
X92278Y-37950D01*
X92107Y-38121D01*
X92292Y-38121D01*
X92478Y-37821D02*
X92507Y-37821D01*
X92535Y-37835D01*
X92550Y-37850D01*
X92564Y-37878D01*
X92578Y-37935D01*
X92578Y-38007D01*
X92564Y-38064D01*
X92550Y-38092D01*
X92535Y-38107D01*
X92507Y-38121D01*
X92478Y-38121D01*
X92450Y-38107D01*
X92435Y-38092D01*
X92421Y-38064D01*
X92407Y-38007D01*
X92407Y-37935D01*
X92421Y-37878D01*
X92435Y-37850D01*
X92450Y-37835D01*
X92478Y-37821D01*
X92878Y-38121D02*
X92778Y-37978D01*
X92707Y-38121D02*
X92707Y-37821D01*
X92821Y-37821D01*
X92850Y-37835D01*
X92864Y-37850D01*
X92878Y-37878D01*
X92878Y-37921D01*
X92864Y-37950D01*
X92850Y-37964D01*
X92821Y-37978D01*
X92707Y-37978D01*
X81750Y-48028D02*
X81735Y-48057D01*
X81707Y-48085D01*
X81664Y-48128D01*
X81650Y-48157D01*
X81650Y-48185D01*
X81721Y-48171D02*
X81707Y-48200D01*
X81678Y-48228D01*
X81621Y-48242D01*
X81521Y-48242D01*
X81464Y-48228D01*
X81435Y-48200D01*
X81421Y-48171D01*
X81421Y-48114D01*
X81435Y-48085D01*
X81464Y-48057D01*
X81521Y-48042D01*
X81621Y-48042D01*
X81678Y-48057D01*
X81707Y-48085D01*
X81721Y-48114D01*
X81721Y-48171D01*
X81721Y-47757D02*
X81721Y-47928D01*
X81721Y-47842D02*
X81421Y-47842D01*
X81464Y-47871D01*
X81492Y-47900D01*
X81507Y-47928D01*
G54D14*
X82285Y-46970D02*
X82321Y-46982D01*
X82333Y-46994D01*
X82345Y-47017D01*
X82345Y-47053D01*
X82333Y-47077D01*
X82321Y-47089D01*
X82297Y-47101D01*
X82202Y-47101D01*
X82202Y-46851D01*
X82285Y-46851D01*
X82309Y-46863D01*
X82321Y-46875D01*
X82333Y-46898D01*
X82333Y-46922D01*
X82321Y-46946D01*
X82309Y-46958D01*
X82285Y-46970D01*
X82202Y-46970D01*
X82595Y-47077D02*
X82583Y-47089D01*
X82547Y-47101D01*
X82523Y-47101D01*
X82488Y-47089D01*
X82464Y-47065D01*
X82452Y-47041D01*
X82440Y-46994D01*
X82440Y-46958D01*
X82452Y-46910D01*
X82464Y-46886D01*
X82488Y-46863D01*
X82523Y-46851D01*
X82547Y-46851D01*
X82583Y-46863D01*
X82595Y-46875D01*
X82809Y-46851D02*
X82761Y-46851D01*
X82738Y-46863D01*
X82726Y-46875D01*
X82702Y-46910D01*
X82690Y-46958D01*
X82690Y-47053D01*
X82702Y-47077D01*
X82714Y-47089D01*
X82738Y-47101D01*
X82785Y-47101D01*
X82809Y-47089D01*
X82821Y-47077D01*
X82833Y-47053D01*
X82833Y-46994D01*
X82821Y-46970D01*
X82809Y-46958D01*
X82785Y-46946D01*
X82738Y-46946D01*
X82714Y-46958D01*
X82702Y-46970D01*
X82690Y-46994D01*
X82916Y-46851D02*
X83071Y-46851D01*
X82988Y-46946D01*
X83023Y-46946D01*
X83047Y-46958D01*
X83059Y-46970D01*
X83071Y-46994D01*
X83071Y-47053D01*
X83059Y-47077D01*
X83047Y-47089D01*
X83023Y-47101D01*
X82952Y-47101D01*
X82928Y-47089D01*
X82916Y-47077D01*
X83190Y-47101D02*
X83238Y-47101D01*
X83261Y-47089D01*
X83273Y-47077D01*
X83297Y-47041D01*
X83309Y-46994D01*
X83309Y-46898D01*
X83297Y-46875D01*
X83285Y-46863D01*
X83261Y-46851D01*
X83214Y-46851D01*
X83190Y-46863D01*
X83178Y-46875D01*
X83166Y-46898D01*
X83166Y-46958D01*
X83178Y-46982D01*
X83190Y-46994D01*
X83214Y-47005D01*
X83261Y-47005D01*
X83285Y-46994D01*
X83297Y-46982D01*
X83309Y-46958D01*
X83196Y-48570D02*
X83279Y-48570D01*
X83315Y-48701D02*
X83196Y-48701D01*
X83196Y-48451D01*
X83315Y-48451D01*
X82827Y-48027D02*
X82815Y-48039D01*
X82779Y-48051D01*
X82755Y-48051D01*
X82720Y-48039D01*
X82696Y-48015D01*
X82684Y-47991D01*
X82672Y-47944D01*
X82672Y-47908D01*
X82684Y-47860D01*
X82696Y-47836D01*
X82720Y-47813D01*
X82755Y-47801D01*
X82779Y-47801D01*
X82815Y-47813D01*
X82827Y-47825D01*
X82267Y-48570D02*
X82303Y-48582D01*
X82315Y-48594D01*
X82327Y-48617D01*
X82327Y-48653D01*
X82315Y-48677D01*
X82303Y-48689D01*
X82279Y-48701D01*
X82184Y-48701D01*
X82184Y-48451D01*
X82267Y-48451D01*
X82291Y-48463D01*
X82303Y-48475D01*
X82315Y-48498D01*
X82315Y-48522D01*
X82303Y-48546D01*
X82291Y-48558D01*
X82267Y-48570D01*
X82184Y-48570D01*
G54D11*
X76557Y-33371D02*
X76457Y-33228D01*
X76385Y-33371D02*
X76385Y-33071D01*
X76500Y-33071D01*
X76528Y-33085D01*
X76542Y-33100D01*
X76557Y-33128D01*
X76557Y-33171D01*
X76542Y-33200D01*
X76528Y-33214D01*
X76500Y-33228D01*
X76385Y-33228D01*
X76842Y-33371D02*
X76671Y-33371D01*
X76757Y-33371D02*
X76757Y-33071D01*
X76728Y-33114D01*
X76700Y-33142D01*
X76671Y-33157D01*
X77028Y-33071D02*
X77057Y-33071D01*
X77085Y-33085D01*
X77100Y-33100D01*
X77114Y-33128D01*
X77128Y-33185D01*
X77128Y-33257D01*
X77114Y-33314D01*
X77100Y-33342D01*
X77085Y-33357D01*
X77057Y-33371D01*
X77028Y-33371D01*
X77000Y-33357D01*
X76985Y-33342D01*
X76971Y-33314D01*
X76957Y-33257D01*
X76957Y-33185D01*
X76971Y-33128D01*
X76985Y-33100D01*
X77000Y-33085D01*
X77028Y-33071D01*
X77900Y-33171D02*
X77900Y-33371D01*
X77828Y-33057D02*
X77757Y-33271D01*
X77942Y-33271D01*
X78114Y-33071D02*
X78142Y-33071D01*
X78171Y-33085D01*
X78185Y-33100D01*
X78200Y-33128D01*
X78214Y-33185D01*
X78214Y-33257D01*
X78200Y-33314D01*
X78185Y-33342D01*
X78171Y-33357D01*
X78142Y-33371D01*
X78114Y-33371D01*
X78085Y-33357D01*
X78071Y-33342D01*
X78057Y-33314D01*
X78042Y-33257D01*
X78042Y-33185D01*
X78057Y-33128D01*
X78071Y-33100D01*
X78085Y-33085D01*
X78114Y-33071D01*
X78400Y-33071D02*
X78428Y-33071D01*
X78457Y-33085D01*
X78471Y-33100D01*
X78485Y-33128D01*
X78500Y-33185D01*
X78500Y-33257D01*
X78485Y-33314D01*
X78471Y-33342D01*
X78457Y-33357D01*
X78428Y-33371D01*
X78400Y-33371D01*
X78371Y-33357D01*
X78357Y-33342D01*
X78342Y-33314D01*
X78328Y-33257D01*
X78328Y-33185D01*
X78342Y-33128D01*
X78357Y-33100D01*
X78371Y-33085D01*
X78400Y-33071D01*
X78628Y-33371D02*
X78628Y-33071D01*
X78657Y-33257D02*
X78742Y-33371D01*
X78742Y-33171D02*
X78628Y-33285D01*
X82007Y-43071D02*
X82007Y-43285D01*
X81992Y-43328D01*
X81964Y-43357D01*
X81921Y-43371D01*
X81892Y-43371D01*
X82307Y-43371D02*
X82135Y-43371D01*
X82221Y-43371D02*
X82221Y-43071D01*
X82192Y-43114D01*
X82164Y-43142D01*
X82135Y-43157D01*
X82492Y-43071D02*
X82521Y-43071D01*
X82550Y-43085D01*
X82564Y-43100D01*
X82578Y-43128D01*
X82592Y-43185D01*
X82592Y-43257D01*
X82578Y-43314D01*
X82564Y-43342D01*
X82550Y-43357D01*
X82521Y-43371D01*
X82492Y-43371D01*
X82464Y-43357D01*
X82450Y-43342D01*
X82435Y-43314D01*
X82421Y-43257D01*
X82421Y-43185D01*
X82435Y-43128D01*
X82450Y-43100D01*
X82464Y-43085D01*
X82492Y-43071D01*
X80507Y-45071D02*
X80507Y-45285D01*
X80492Y-45328D01*
X80464Y-45357D01*
X80421Y-45371D01*
X80392Y-45371D01*
X80807Y-45371D02*
X80635Y-45371D01*
X80721Y-45371D02*
X80721Y-45071D01*
X80692Y-45114D01*
X80664Y-45142D01*
X80635Y-45157D01*
X81092Y-45371D02*
X80921Y-45371D01*
X81007Y-45371D02*
X81007Y-45071D01*
X80978Y-45114D01*
X80950Y-45142D01*
X80921Y-45157D01*
G54D14*
X86351Y-46160D02*
X86232Y-46244D01*
X86351Y-46303D02*
X86101Y-46303D01*
X86101Y-46208D01*
X86113Y-46184D01*
X86125Y-46172D01*
X86148Y-46160D01*
X86184Y-46160D01*
X86208Y-46172D01*
X86220Y-46184D01*
X86232Y-46208D01*
X86232Y-46303D01*
X86351Y-45922D02*
X86351Y-46065D01*
X86351Y-45994D02*
X86101Y-45994D01*
X86136Y-46017D01*
X86160Y-46041D01*
X86172Y-46065D01*
X86125Y-45827D02*
X86113Y-45815D01*
X86101Y-45791D01*
X86101Y-45732D01*
X86113Y-45708D01*
X86125Y-45696D01*
X86148Y-45684D01*
X86172Y-45684D01*
X86208Y-45696D01*
X86351Y-45839D01*
X86351Y-45684D01*
X88351Y-44910D02*
X88232Y-44994D01*
X88351Y-45053D02*
X88101Y-45053D01*
X88101Y-44958D01*
X88113Y-44934D01*
X88125Y-44922D01*
X88148Y-44910D01*
X88184Y-44910D01*
X88208Y-44922D01*
X88220Y-44934D01*
X88232Y-44958D01*
X88232Y-45053D01*
X88351Y-44672D02*
X88351Y-44815D01*
X88351Y-44744D02*
X88101Y-44744D01*
X88136Y-44767D01*
X88160Y-44791D01*
X88172Y-44815D01*
X88101Y-44589D02*
X88101Y-44434D01*
X88196Y-44517D01*
X88196Y-44482D01*
X88208Y-44458D01*
X88220Y-44446D01*
X88244Y-44434D01*
X88303Y-44434D01*
X88327Y-44446D01*
X88339Y-44458D01*
X88351Y-44482D01*
X88351Y-44553D01*
X88339Y-44577D01*
X88327Y-44589D01*
X90851Y-44910D02*
X90732Y-44994D01*
X90851Y-45053D02*
X90601Y-45053D01*
X90601Y-44958D01*
X90613Y-44934D01*
X90625Y-44922D01*
X90648Y-44910D01*
X90684Y-44910D01*
X90708Y-44922D01*
X90720Y-44934D01*
X90732Y-44958D01*
X90732Y-45053D01*
X90851Y-44672D02*
X90851Y-44815D01*
X90851Y-44744D02*
X90601Y-44744D01*
X90636Y-44767D01*
X90660Y-44791D01*
X90672Y-44815D01*
X90684Y-44458D02*
X90851Y-44458D01*
X90589Y-44517D02*
X90767Y-44577D01*
X90767Y-44422D01*
M02*
