G04 (created by PCBNEW (22-Jun-2014 BZR 4027)-stable) date Sun 29 Apr 2018 09:06:28 PM CDT*
%MOIN*%
G04 Gerber Fmt 3.4, Leading zero omitted, Abs format*
%FSLAX34Y34*%
G01*
G70*
G90*
G04 APERTURE LIST*
%ADD10C,0.00590551*%
%ADD11C,0.125984*%
%ADD12C,0.059*%
%ADD13O,0.059X0.059*%
%ADD14R,0.059X0.059*%
%ADD15R,0.069X0.069*%
%ADD16O,0.069X0.069*%
%ADD17O,0.059X0.0885*%
%ADD18R,0.059X0.0885*%
%ADD19C,0.069*%
%ADD20C,0.056*%
%ADD21O,0.072X0.056*%
%ADD22O,0.056X0.072*%
%ADD23C,0.05*%
G04 APERTURE END LIST*
G54D10*
G54D11*
X63750Y-31500D03*
X63500Y-48750D03*
X92750Y-31500D03*
G54D12*
X71750Y-42250D03*
X73750Y-42250D03*
X72250Y-42250D03*
X66250Y-34750D03*
X66250Y-36750D03*
X66250Y-35250D03*
X68750Y-35250D03*
X68750Y-37250D03*
X68750Y-35750D03*
X82250Y-37000D03*
X82250Y-39000D03*
X82250Y-37500D03*
X72750Y-35750D03*
X72750Y-37750D03*
X72750Y-36250D03*
G54D13*
X90250Y-33500D03*
X90250Y-34500D03*
X64500Y-39500D03*
X64500Y-35500D03*
X63000Y-46500D03*
X63000Y-42500D03*
X92500Y-40750D03*
X92500Y-44750D03*
X71750Y-43750D03*
X71750Y-47750D03*
X81000Y-46500D03*
X77000Y-46500D03*
X77000Y-47500D03*
X81000Y-47500D03*
X86250Y-39250D03*
X86250Y-43250D03*
G54D14*
X86000Y-34750D03*
G54D13*
X86000Y-35750D03*
X86000Y-36750D03*
X86000Y-37750D03*
X89000Y-37750D03*
X89000Y-36750D03*
X89000Y-34750D03*
X89000Y-35750D03*
G54D14*
X68500Y-43750D03*
G54D13*
X67500Y-43750D03*
X66500Y-43750D03*
X65500Y-43750D03*
X65500Y-46750D03*
X66500Y-46750D03*
X68500Y-46750D03*
X67500Y-46750D03*
G54D15*
X84500Y-32250D03*
G54D16*
X80500Y-32250D03*
G54D15*
X63000Y-41750D03*
G54D16*
X67000Y-41750D03*
G54D12*
X65000Y-40500D03*
X67000Y-40500D03*
X73500Y-44250D03*
X75500Y-44250D03*
X64250Y-43000D03*
X64250Y-45000D03*
X81500Y-31250D03*
X83500Y-31250D03*
X70750Y-35750D03*
X70750Y-37750D03*
X86500Y-33250D03*
X88500Y-33250D03*
X88500Y-32250D03*
X86500Y-32250D03*
X87000Y-39250D03*
X89000Y-39250D03*
X80250Y-41500D03*
X78250Y-41500D03*
X75500Y-47750D03*
X75500Y-45750D03*
X70000Y-46250D03*
X70000Y-44250D03*
G54D17*
X91500Y-39397D03*
X92500Y-39397D03*
G54D18*
X90500Y-39397D03*
G54D16*
X84750Y-48000D03*
X93250Y-34500D03*
X91500Y-36750D03*
X79000Y-48750D03*
X77500Y-31750D03*
X77500Y-42750D03*
X84500Y-41750D03*
X64000Y-34250D03*
X93250Y-33500D03*
G54D17*
X83250Y-47852D03*
X82750Y-48647D03*
X82250Y-47852D03*
G54D13*
X75000Y-33250D03*
X80000Y-33250D03*
G54D19*
X80250Y-42750D03*
X84500Y-42750D03*
X77500Y-44750D03*
X84000Y-44750D03*
G54D16*
X85000Y-44750D03*
G54D12*
X86250Y-44750D03*
X86250Y-46750D03*
X86250Y-45250D03*
X88250Y-43500D03*
X88250Y-45500D03*
X88250Y-44000D03*
X90750Y-43500D03*
X90750Y-45500D03*
X90750Y-44000D03*
G54D19*
X66250Y-32000D03*
X66250Y-39500D03*
X68750Y-32500D03*
X68750Y-40000D03*
X90750Y-40750D03*
X90750Y-48250D03*
X88250Y-40750D03*
X88250Y-48250D03*
X82250Y-34250D03*
X82250Y-41750D03*
X72750Y-33000D03*
X72750Y-40500D03*
X69000Y-42250D03*
X76500Y-42250D03*
G54D20*
X76792Y-36542D02*
X76679Y-36429D01*
X78320Y-36429D02*
X78207Y-36542D01*
G54D21*
X78640Y-37250D03*
G54D22*
X77500Y-36109D03*
G54D20*
X78320Y-38070D02*
X78207Y-37957D01*
G54D22*
X77500Y-38390D03*
G54D20*
X76792Y-37957D02*
X76679Y-38070D01*
G54D21*
X76359Y-37250D03*
G54D23*
X77500Y-44750D02*
X84000Y-44750D01*
X80250Y-42750D02*
X84500Y-42750D01*
M02*
