M48
;DRILL file {Pcbnew (22-Jun-2014 BZR 4027)-stable} date Sun 29 Apr 2018 08:57:06 PM CDT
;FORMAT={-:-/ absolute / inch / decimal}
FMAT,2
INCH,TZ
T1C0.032
T2C0.040
T3C0.126
%
G90
G05
M72
T1
X6.3Y-4.25
X6.3Y-4.65
X6.425Y-4.3
X6.425Y-4.5
X6.45Y-3.55
X6.45Y-3.95
X6.5Y-4.05
X6.55Y-4.375
X6.55Y-4.675
X6.625Y-3.475
X6.625Y-3.525
X6.625Y-3.675
X6.65Y-4.375
X6.65Y-4.675
X6.7Y-4.05
X6.75Y-4.375
X6.75Y-4.675
X6.85Y-4.375
X6.85Y-4.675
X6.875Y-3.525
X6.875Y-3.575
X6.875Y-3.725
X7.Y-4.425
X7.Y-4.625
X7.075Y-3.575
X7.075Y-3.775
X7.175Y-4.225
X7.175Y-4.375
X7.175Y-4.775
X7.225Y-4.225
X7.275Y-3.575
X7.275Y-3.625
X7.275Y-3.775
X7.35Y-4.425
X7.375Y-4.225
X7.5Y-3.325
X7.55Y-4.425
X7.55Y-4.575
X7.55Y-4.775
X7.651Y-3.725
X7.6793Y-3.6543
X7.6793Y-3.7957
X7.7Y-4.65
X7.7Y-4.75
X7.75Y-3.626
X7.75Y-3.824
X7.8207Y-3.6543
X7.8207Y-3.7957
X7.825Y-4.15
X7.849Y-3.725
X8.Y-3.325
X8.025Y-4.15
X8.1Y-4.65
X8.1Y-4.75
X8.15Y-3.125
X8.225Y-3.7
X8.225Y-3.75
X8.225Y-3.9
X8.225Y-4.8
X8.275Y-4.85
X8.325Y-4.8
X8.35Y-3.125
X8.6Y-3.475
X8.6Y-3.575
X8.6Y-3.675
X8.6Y-3.775
X8.625Y-3.925
X8.625Y-4.325
X8.625Y-4.475
X8.625Y-4.525
X8.625Y-4.675
X8.65Y-3.225
X8.65Y-3.325
X8.7Y-3.925
X8.825Y-4.35
X8.825Y-4.4
X8.825Y-4.55
X8.85Y-3.225
X8.85Y-3.325
X8.9Y-3.475
X8.9Y-3.575
X8.9Y-3.675
X8.9Y-3.775
X8.9Y-3.925
X9.025Y-3.35
X9.025Y-3.45
X9.05Y-3.925
X9.075Y-4.35
X9.075Y-4.4
X9.075Y-4.55
X9.15Y-3.925
X9.25Y-3.925
X9.25Y-4.075
X9.25Y-4.475
T2
X6.3Y-4.175
X6.4Y-3.425
X6.625Y-3.2
X6.625Y-3.95
X6.7Y-4.175
X6.875Y-3.25
X6.875Y-4.
X6.9Y-4.225
X7.275Y-3.3
X7.275Y-4.05
X7.65Y-4.225
X7.75Y-3.175
X7.75Y-4.275
X7.75Y-4.475
X7.9Y-4.875
X8.025Y-4.275
X8.05Y-3.225
X8.225Y-3.425
X8.225Y-4.175
X8.4Y-4.475
X8.45Y-3.225
X8.45Y-4.175
X8.45Y-4.275
X8.475Y-4.8
X8.5Y-4.475
X8.825Y-4.075
X8.825Y-4.825
X9.075Y-4.075
X9.075Y-4.825
X9.15Y-3.675
X9.325Y-3.35
X9.325Y-3.45
T3
X6.35Y-4.875
X6.375Y-3.15
X9.275Y-3.15
T0
M30
